<svg width="24" height="24" viewBox="0 0 24 24" fill="none" xmlns="http://www.w3.org/2000/svg">
<g id="hide-pass">
<g id="Vector">
<path fill-rule="evenodd" clip-rule="evenodd" d="M3.31316 2.2253C3.01276 1.9249 2.52571 1.9249 2.2253 2.2253C1.9249 2.52571 1.9249 3.01276 2.2253 3.31316L6.00425 7.09211C4.54966 8.18079 3.25507 9.69516 2.10962 11.6042C1.96346 11.8478 1.96346 12.1522 2.10962 12.3958C4.66269 16.6509 7.95588 18.9221 11.9975 18.9231C13.6315 18.9334 15.2383 18.5313 16.6705 17.7583L20.6868 21.7747C20.9872 22.0751 21.4743 22.0751 21.7747 21.7747C22.0751 21.4743 22.0751 20.9872 21.7747 20.6868L17.4079 16.32C17.368 16.2687 17.3226 16.2236 17.273 16.1851L3.31316 2.2253ZM15.5253 16.6132L13.3754 14.4633C12.9587 14.6961 12.4859 14.8215 12.0001 14.8216C11.252 14.8217 10.5345 14.5247 10.0055 13.9958C9.47641 13.467 9.17912 12.7496 9.17899 12.0015C9.1789 11.5154 9.30432 11.0422 9.53731 10.6252L7.10513 8.19299C5.8745 9.07087 4.72694 10.3304 3.67243 12C5.9935 15.6759 8.77184 17.3846 12 17.3846H12.0051C13.2254 17.3927 14.4277 17.1273 15.5253 16.6132ZM10.7305 11.8184C10.7219 11.8786 10.7174 11.9397 10.7174 12.0013C10.7175 12.3413 10.8526 12.6674 11.0931 12.9078C11.3336 13.1482 11.6597 13.2832 11.9998 13.2831C12.0612 13.2831 12.1221 13.2787 12.1822 13.2701L10.7305 11.8184Z" fill="#212121"/>
<path d="M11.998 6.61538C11.4231 6.6139 10.8495 6.67063 10.286 6.78471C9.86957 6.869 9.46369 6.59978 9.3794 6.1834C9.2951 5.76701 9.56432 5.36112 9.98071 5.27683C10.6457 5.14222 11.3225 5.07524 12.001 5.07692C16.0433 5.07729 19.337 7.34858 21.8904 11.6042C22.0365 11.8478 22.0365 12.1522 21.8904 12.3958C21.1834 13.5741 20.4195 14.6018 19.597 15.472C19.3052 15.7807 18.8183 15.7944 18.5096 15.5026C18.2008 15.2108 18.1871 14.7239 18.4789 14.4152C19.1235 13.7332 19.7406 12.9292 20.3276 12C18.0065 8.32413 15.2282 6.61538 12 6.61538L11.998 6.61538Z" fill="#212121"/>
</g>
</g>
</svg>
