<svg width="35" height="30" viewBox="0 0 35 30" fill="none" xmlns="http://www.w3.org/2000/svg">
<path id="Vector" fill-rule="evenodd" clip-rule="evenodd" d="M11.4279 2.61083C10.4311 2.50421 9.42304 2.60569 8.46727 2.90888C7.51151 3.21208 6.6287 3.71041 5.87445 4.3725C5.1202 5.0346 4.51084 5.84611 4.08474 6.75594C3.65865 7.66577 3.42504 8.6542 3.39865 9.659C3.37225 10.6638 3.55363 11.6632 3.93136 12.5943C4.3091 13.5253 4.87501 14.3679 5.59345 15.0689L5.60154 15.0768L17.5142 26.9067L29.4268 15.0768C29.4583 15.0456 29.4909 15.0163 29.5246 14.989C30.193 14.3062 30.7209 13.4978 31.0777 12.6096C31.4511 11.6802 31.6292 10.6835 31.6008 9.68188C31.5724 8.68027 31.3381 7.69532 30.9125 6.78869C30.487 5.88205 29.8795 5.07323 29.1279 4.41287C28.3763 3.7525 27.4968 3.25479 26.5446 2.95089C25.5923 2.64699 24.5877 2.54344 23.5937 2.64673C22.5997 2.75002 21.6377 3.05791 20.7678 3.55115C19.8979 4.04439 19.1389 4.71234 18.5384 5.51322C18.2955 5.83702 17.9146 6.02704 17.5106 6.02591C17.1065 6.02478 16.7267 5.83265 16.4857 5.50749C15.8877 4.70076 15.1296 4.02691 14.2591 3.52839C13.3887 3.02986 12.4247 2.71745 11.4279 2.61083ZM31.1275 17.0047L18.4159 29.628C17.9165 30.124 17.1118 30.124 16.6124 29.628L3.8061 16.9106C3.8047 16.9092 3.8033 16.9078 3.8019 16.9065C2.83188 15.9589 2.06771 14.8204 1.55739 13.5626C1.04634 12.3029 0.800945 10.9508 0.836659 9.59133C0.872372 8.2319 1.18842 6.89461 1.7649 5.66366C2.34139 4.43272 3.16581 3.33479 4.18627 2.43901C5.20673 1.54324 6.40111 0.869023 7.69421 0.458823C8.9873 0.0486235 10.3511 -0.0886738 11.6997 0.0555751C13.0483 0.199824 14.3525 0.622495 15.5302 1.29697C16.2561 1.7127 16.9243 2.21855 17.5195 2.80107C18.115 2.2248 18.7822 1.72481 19.5062 1.31429C20.6831 0.646972 21.9847 0.230406 23.3295 0.0906652C24.6744 -0.0490761 26.0335 0.0910159 27.3218 0.502173C28.6102 0.913329 29.8 1.5867 30.8169 2.48014C31.8338 3.37358 32.6558 4.46786 33.2315 5.69449C33.8072 6.92112 34.1242 8.25369 34.1626 9.6088C34.2011 10.9639 33.9601 12.3124 33.4549 13.5699C32.9497 14.8273 32.1911 15.9667 31.2265 16.9166C31.1947 16.948 31.1616 16.9773 31.1275 17.0047Z" fill="#AA854B"/>
</svg>
