<svg width="24" height="24" viewBox="0 0 24 24" fill="none" xmlns="http://www.w3.org/2000/svg">
<path d="M8.58692 7.73612L2.77955 8.57328L2.67669 8.59409C2.52099 8.63519 2.37904 8.71664 2.26535 8.83013C2.15165 8.94362 2.07029 9.08507 2.02957 9.24005C1.98884 9.39502 1.99021 9.55797 2.03354 9.71225C2.07687 9.86652 2.1606 10.0066 2.27619 10.1182L6.48334 14.19L5.49117 19.9415L5.47934 20.041C5.46981 20.2012 5.50325 20.3609 5.57624 20.504C5.64922 20.647 5.75914 20.7682 5.89472 20.8551C6.0303 20.9421 6.18668 20.9916 6.34785 20.9987C6.50902 21.0057 6.66918 20.9701 6.81194 20.8954L12.0058 18.1803L17.1878 20.8954L17.2789 20.937C17.4291 20.9959 17.5924 21.0139 17.752 20.9893C17.9115 20.9647 18.0616 20.8983 18.1869 20.797C18.3122 20.6957 18.4081 20.563 18.4648 20.4127C18.5214 20.2623 18.5369 20.0997 18.5095 19.9415L17.5164 14.19L21.7254 10.1173L21.7964 10.0403C21.8978 9.91615 21.9643 9.76744 21.9891 9.60936C22.0139 9.45129 21.9961 9.28951 21.9376 9.14049C21.879 8.99148 21.7818 8.86057 21.6558 8.76109C21.5297 8.66161 21.3795 8.59711 21.2202 8.57418L15.4129 7.73612L12.8168 2.50498C12.7417 2.35342 12.6254 2.22579 12.4811 2.13655C12.3368 2.0473 12.1703 2 12.0003 2C11.8304 2 11.6639 2.0473 11.5196 2.13655C11.3753 2.22579 11.259 2.35342 11.1839 2.50498L8.58692 7.73612Z" fill="#AA854B"/>
</svg>
