<svg width="20" height="20" viewBox="0 0 20 20" fill="none" xmlns="http://www.w3.org/2000/svg">
<g id="time">
<g id="Vector">
<path d="M10.641 9.359V5.72652C10.641 5.37249 10.354 5.08549 9.99996 5.08549C9.64593 5.08549 9.35893 5.37249 9.35893 5.72652V10C9.35893 10.354 9.64593 10.641 9.99996 10.641H12.9914C13.3454 10.641 13.6324 10.354 13.6324 10C13.6324 9.64599 13.3454 9.359 12.9914 9.359H10.641Z" fill="#707070"/>
<path fill-rule="evenodd" clip-rule="evenodd" d="M6.81093 2.30102C7.82198 1.88224 8.90561 1.66669 9.99996 1.66669C11.0943 1.66669 12.1779 1.88224 13.189 2.30102C14.2 2.71981 15.1187 3.33364 15.8925 4.10746C16.6663 4.88129 17.2802 5.79994 17.699 6.81099C18.1177 7.82204 18.3333 8.90567 18.3333 10C18.3333 11.0944 18.1177 12.178 17.699 13.189C17.2802 14.2001 16.6663 15.1188 15.8925 15.8926C15.1187 16.6664 14.2 17.2802 13.189 17.699C12.1779 18.1178 11.0943 18.3334 9.99996 18.3334C8.90561 18.3334 7.82198 18.1178 6.81093 17.699C5.79988 17.2802 4.88122 16.6664 4.1074 15.8926C3.33358 15.1188 2.71975 14.2001 2.30096 13.189C1.88217 12.178 1.66663 11.0944 1.66663 10C1.66663 8.90567 1.88217 7.82204 2.30096 6.81099C2.71975 5.79995 3.33358 4.88129 4.1074 4.10746C4.88122 3.33364 5.79988 2.71981 6.81093 2.30102ZM9.99996 2.94874C9.07397 2.94874 8.15705 3.13113 7.30155 3.48549C6.44605 3.83985 5.66872 4.35924 5.01395 5.01401C4.35918 5.66878 3.83978 6.44611 3.48542 7.30161C3.13106 8.15711 2.94868 9.07403 2.94868 10C2.94868 10.926 3.13106 11.8429 3.48542 12.6984C3.83978 13.5539 4.35918 14.3313 5.01395 14.986C5.66872 15.6408 6.44605 16.1602 7.30155 16.5146C8.15705 16.8689 9.07397 17.0513 9.99996 17.0513C10.9259 17.0513 11.8429 16.8689 12.6984 16.5146C13.5539 16.1602 14.3312 15.6408 14.986 14.986C15.6407 14.3313 16.1601 13.5539 16.5145 12.6984C16.8689 11.8429 17.0512 10.926 17.0512 10C17.0512 9.07403 16.8689 8.15711 16.5145 7.30161C16.1601 6.44611 15.6407 5.66878 14.986 5.01401C14.3312 4.35924 13.5539 3.83985 12.6984 3.48549C11.8429 3.13113 10.9259 2.94874 9.99996 2.94874Z" fill="#707070"/>
</g>
</g>
</svg>
