<svg width="24" height="24" viewBox="0 0 24 24" fill="none" xmlns="http://www.w3.org/2000/svg">
<g id="error">
<g id="Vector">
<path d="M12 8.15385C12.4248 8.15385 12.7692 8.49824 12.7692 8.92308V13.0256C12.7692 13.4505 12.4248 13.7949 12 13.7949C11.5752 13.7949 11.2308 13.4505 11.2308 13.0256V8.92308C11.2308 8.49824 11.5752 8.15385 12 8.15385Z" fill="#AB332B"/>
<path d="M12.7692 16.1026C12.7692 15.6777 12.4248 15.3333 12 15.3333C11.5752 15.3333 11.2308 15.6777 11.2308 16.1026V16.1128C11.2308 16.5377 11.5752 16.8821 12 16.8821C12.4248 16.8821 12.7692 16.5377 12.7692 16.1128V16.1026Z" fill="#AB332B"/>
<path fill-rule="evenodd" clip-rule="evenodd" d="M8.17317 2.7612C9.38642 2.25866 10.6868 2 12 2C13.3132 2 14.6136 2.25866 15.8268 2.7612C17.0401 3.26375 18.1425 4.00035 19.0711 4.92893C19.9997 5.85752 20.7362 6.95991 21.2388 8.17317C21.7413 9.38642 22 10.6868 22 12C22 13.3132 21.7413 14.6136 21.2388 15.8268C20.7362 17.0401 19.9997 18.1425 19.0711 19.0711C18.1425 19.9997 17.0401 20.7362 15.8268 21.2388C14.6136 21.7413 13.3132 22 12 22C10.6868 22 9.38642 21.7413 8.17317 21.2388C6.95991 20.7362 5.85752 19.9997 4.92893 19.0711C4.00035 18.1425 3.26375 17.0401 2.7612 15.8268C2.25866 14.6136 2 13.3132 2 12C2 10.6868 2.25866 9.38642 2.7612 8.17317C3.26375 6.95991 4.00035 5.85752 4.92893 4.92893C5.85752 4.00035 6.95991 3.26375 8.17317 2.7612ZM12 3.53846C10.8888 3.53846 9.78851 3.75733 8.76191 4.18256C7.73531 4.60779 6.80252 5.23106 6.01679 6.01679C5.23106 6.80252 4.60779 7.73531 4.18256 8.76191C3.75733 9.78851 3.53846 10.8888 3.53846 12C3.53846 13.1112 3.75733 14.2115 4.18256 15.2381C4.60779 16.2647 5.23106 17.1975 6.01679 17.9832C6.80252 18.7689 7.73531 19.3922 8.76191 19.8174C9.78851 20.2427 10.8888 20.4615 12 20.4615C13.1112 20.4615 14.2115 20.2427 15.2381 19.8174C16.2647 19.3922 17.1975 18.7689 17.9832 17.9832C18.7689 17.1975 19.3922 16.2647 19.8174 15.2381C20.2427 14.2115 20.4615 13.1112 20.4615 12C20.4615 10.8888 20.2427 9.78851 19.8174 8.76191C19.3922 7.73531 18.7689 6.80252 17.9832 6.01679C17.1975 5.23106 16.2647 4.60779 15.2381 4.18256C14.2115 3.75733 13.1112 3.53846 12 3.53846Z" fill="#AB332B"/>
</g>
</g>
</svg>
