<svg width="24" height="24" viewBox="0 0 24 24" fill="none" xmlns="http://www.w3.org/2000/svg">
<g id="user">
<g id="Vector">
<path fill-rule="evenodd" clip-rule="evenodd" d="M12 2C10.6936 2 9.44063 2.51328 8.51684 3.42692C7.59305 4.34055 7.07407 5.57971 7.07407 6.8718C7.07407 8.16388 7.59305 9.40304 8.51684 10.3167C9.44063 11.2303 10.6936 11.7436 12 11.7436C13.3064 11.7436 14.5594 11.2303 15.4832 10.3167C16.4069 9.40304 16.9259 8.16388 16.9259 6.8718C16.9259 5.57971 16.4069 4.34055 15.4832 3.42692C14.5594 2.51328 13.3064 2 12 2ZM9.61679 4.51477C10.2489 3.88965 11.1061 3.53846 12 3.53846C12.8939 3.53846 13.7511 3.88965 14.3832 4.51477C15.0153 5.13989 15.3704 5.98774 15.3704 6.8718C15.3704 7.75585 15.0153 8.6037 14.3832 9.22882C13.7511 9.85394 12.8939 10.2051 12 10.2051C11.1061 10.2051 10.2489 9.85394 9.61679 9.22882C8.98472 8.6037 8.62963 7.75585 8.62963 6.8718C8.62963 5.98774 8.98472 5.13989 9.61679 4.51477Z" fill="#AA854B"/>
<path d="M7.54271 16.8225C8.17478 16.1973 9.03205 15.8462 9.92593 15.8462H14.0741C14.968 15.8462 15.8252 16.1973 16.4573 16.8225C17.0894 17.4476 17.4444 18.2954 17.4444 19.1795V21.2308C17.4444 21.6556 17.7927 22 18.2222 22C18.6518 22 19 21.6556 19 21.2308V19.1795C19 17.8874 18.481 16.6482 17.5572 15.7346C16.6334 14.821 15.3805 14.3077 14.0741 14.3077H9.92593C8.61949 14.3077 7.36656 14.821 6.44277 15.7346C5.51898 16.6482 5 17.8874 5 19.1795V21.2308C5 21.6556 5.34822 22 5.77778 22C6.20733 22 6.55556 21.6556 6.55556 21.2308V19.1795C6.55556 18.2954 6.91065 17.4476 7.54271 16.8225Z" fill="#AA854B"/>
</g>
</g>
</svg>
