<svg width="24" height="24" viewBox="0 0 24 24" fill="none" xmlns="http://www.w3.org/2000/svg">
    <path fill-rule="evenodd" clip-rule="evenodd" d="M12 2C12.2659 2 12.5088 2.15027 12.6264 2.38762L15.3383 7.85709L21.4016 8.73178C21.6649 8.76976 21.8837 8.95331 21.9658 9.20518C22.048 9.45705 21.9793 9.73351 21.7887 9.91822L17.3949 14.1754L18.4309 20.1871C18.4759 20.4481 18.368 20.7118 18.1527 20.8674C17.9374 21.0229 17.652 21.0433 17.4167 20.9198L12.0062 18.0819L6.58274 20.9201C6.34738 21.0433 6.06216 21.0228 5.84703 20.8672C5.6319 20.7116 5.52417 20.448 5.56912 20.1871L6.60515 14.1754L2.21133 9.91822C2.02069 9.73351 1.95201 9.45705 2.03418 9.20518C2.11635 8.95331 2.33511 8.76976 2.59841 8.73178L8.66173 7.85709L11.3736 2.38762C11.4912 2.15027 11.7341 2 12 2ZM12 4.26658L9.75201 8.80054C9.65021 9.00586 9.4534 9.14813 9.22576 9.18097L4.20154 9.90576L7.84309 13.4341C8.00798 13.5938 8.08325 13.8242 8.04435 14.0499L7.18551 19.0334L11.6814 16.6806C11.8852 16.574 12.1286 16.5741 12.3322 16.6809L16.8142 19.0318L15.9557 14.0499C15.9167 13.8242 15.992 13.5938 16.1569 13.4341L19.7985 9.90576L14.7742 9.18097C14.5466 9.14813 14.3498 9.00586 14.248 8.80054L12 4.26658Z" fill="#8C8C8C"/>
</svg>
