<svg width="39" height="64" viewBox="0 0 39 64" fill="none" xmlns="http://www.w3.org/2000/svg">
<g id="Group 2">
<path id="Vector" d="M37.9102 49.1406V49.1551C37.9102 49.1551 37.9198 49.1406 37.9102 49.1406Z" fill="white"/>
<path id="Vector_2" d="M37.9146 14.2923V14.0664H0.501953V49.0021C0.501953 49.0021 0.506857 49.0169 0.516637 49.0169C2.25744 49.0463 5.90042 48.6486 8.70233 48.9383C12.5018 49.3262 18.2132 49.1592 20.7511 49.1985C22.1398 49.2182 23.2107 48.5258 24.4723 48.737C25.8659 48.9727 29.7729 49.1445 31.2203 49.1494C33.5626 49.1543 37.6555 49.0414 37.9146 49.1396C37.9146 49.0611 37.9195 48.7517 37.9195 48.7468V14.2923H37.9146ZM34.3645 34.0213C31.5186 33.0687 25.6997 34.0507 22.3403 36.275C21.8611 36.5942 21.377 36.9379 20.9222 37.2816C20.9075 37.2816 20.9075 37.3012 20.9173 37.3111C21.9344 38.2047 22.9662 39.1671 23.8855 40.046H23.9001L24.9172 39.7269C24.9172 39.7269 24.9466 39.7269 24.9368 39.7465L24.6728 40.7924V40.812C25.4111 41.5191 26.0419 42.123 26.4869 42.5256C26.5749 42.4962 26.6678 42.4814 26.751 42.4814C27.3377 42.4814 27.8121 42.9577 27.8121 43.5469C27.8121 44.1362 27.3377 44.6075 26.751 44.6075C26.707 44.6075 26.6581 44.6075 26.6141 44.6075H26.6092C26.1348 44.6075 25.7045 44.5634 24.2131 43.159C23.9637 42.9135 23.5872 42.5305 23.1227 42.0641C23.1227 42.0641 23.1178 42.0641 23.108 42.0641L22.218 42.344C22.218 42.344 22.1985 42.3341 22.1985 42.3243L22.4332 41.3816V41.3668C21.5921 40.5321 20.5603 39.5255 19.4161 38.5386C19.4112 38.5386 19.3965 38.5386 19.3868 38.5386C18.355 39.4322 17.4064 40.3406 16.6191 41.1262C16.6142 41.1262 16.6142 41.1262 16.6142 41.141L16.8782 42.1623C16.8782 42.1623 16.8636 42.1917 16.8489 42.1819L15.8856 41.8726C15.8856 41.8726 15.8709 41.8726 15.866 41.8824C15.3135 42.452 14.8783 42.8988 14.5947 43.1738C13.1032 44.5781 12.6729 44.6272 12.1986 44.6272H12.1937C12.1448 44.6272 12.1008 44.6272 12.0519 44.6272C11.5874 44.6272 11.1864 44.3178 11.0397 43.8907C10.9174 43.5028 11.0837 43.0707 11.3967 42.8055C11.7976 42.4618 12.0568 42.4765 12.3062 42.5453C12.3111 42.5453 12.3208 42.5453 12.3208 42.5453C12.8294 42.0935 13.5825 41.3619 14.4529 40.5223C14.4578 40.5223 14.4577 40.5076 14.4577 40.5027L14.2377 39.6532C14.2377 39.6532 14.2524 39.6237 14.2573 39.6336L15.0885 39.8987C15.0885 39.8987 15.1032 39.8987 15.1081 39.8889C15.9736 39.0591 16.9272 38.1605 17.8758 37.3307C17.8905 37.3307 17.8905 37.3111 17.8758 37.3012C17.4161 36.9575 16.9418 36.6089 16.4626 36.2947C13.0935 34.0704 7.28427 33.0883 4.42856 34.0409C4.41389 34.0409 4.39921 34.0409 4.41388 34.0213C4.55568 33.7757 5.56791 32.4205 9.49939 32.4205C11.8221 32.4205 15.1228 33.3977 17.866 35.0426C17.8709 35.0426 17.8807 35.0426 17.8856 35.0426C18.1301 34.4877 18.8196 28.4826 18.4577 24.2697C18.4577 24.2697 18.443 24.2501 18.4381 24.255C18.1741 24.4514 15.7047 26.2927 15.3819 28.7036C15.377 28.7232 15.3526 28.7232 15.3477 28.7036C15.2597 28.0358 14.9516 24.7509 16.5898 23.2042C16.6044 23.1895 16.5946 23.1698 16.5751 23.1747C16.1252 23.268 12.9908 24.0438 11.8074 27.6332C11.8025 27.6479 11.7781 27.6528 11.7732 27.6332C11.6363 26.7739 11.5238 21.5937 16.0567 20.7639C16.0714 20.7639 16.0763 20.7442 16.0714 20.7344C15.8367 20.5822 14.3551 19.7425 12.4578 20.9504C12.4431 20.9504 12.4284 20.9504 12.4382 20.9308C12.6729 20.5282 14.2328 18.132 17.3917 19.2761C17.4063 19.2761 17.421 19.2761 17.4113 19.2613C17.333 19.0748 16.9027 18.1958 16.091 18.0682C16.0763 18.0584 16.0714 18.0387 16.091 18.0338C16.4479 17.9552 17.9198 17.7196 18.6875 18.7703C18.6924 18.7703 18.7071 18.7703 18.7169 18.7703L19.3672 16.983V16.9192V16.9536L19.3868 16.9192V16.983L20.0371 18.7703C20.0371 18.7703 20.0567 18.7851 20.0665 18.7703C20.8244 17.7196 22.2963 17.9552 22.6532 18.0338C22.6728 18.0436 22.6679 18.0633 22.6532 18.0682C21.8513 18.1958 21.421 19.0748 21.3329 19.2613C21.3329 19.2712 21.3476 19.281 21.3623 19.2761C24.5163 18.132 26.081 20.5282 26.3158 20.9308C26.3206 20.9455 26.3011 20.9603 26.2864 20.9504C24.394 19.7425 22.9173 20.5822 22.6777 20.7344C22.663 20.7344 22.6728 20.7639 22.6826 20.7639C27.2155 21.5937 27.0981 26.7739 26.9661 27.6332C26.9661 27.6479 26.9368 27.6479 26.9368 27.6332C25.7485 24.0487 22.619 23.268 22.1593 23.1747C22.1447 23.1747 22.1398 23.1895 22.1545 23.2042C23.7877 24.7509 23.4747 28.0358 23.3867 28.7036C23.3867 28.7232 23.3574 28.7232 23.3574 28.7036C23.0346 26.2927 20.5701 24.4465 20.3012 24.255C20.2865 24.255 20.2816 24.2648 20.2718 24.2697C19.9295 28.6839 20.6092 34.5663 20.8537 35.0622C20.8537 35.0769 20.8684 35.0769 20.8733 35.0622C23.6263 33.4075 26.9466 32.4107 29.2839 32.4107C33.2154 32.4107 34.2179 33.7659 34.3694 34.0114C34.3743 34.0262 34.3695 34.0409 34.3499 34.0311H34.3645V34.0213Z" fill="white"/>
<path id="Vector_3" d="M38.0467 0H0.516637C0.516637 0 0.501953 0.0098203 0.501953 0.0147304V2.74477C0.501953 2.74477 0.506857 2.7595 0.516637 2.7595H32.7509C32.7509 2.7595 32.7655 2.74968 32.7655 2.74477V1.06059C32.7655 1.06059 32.7704 1.04586 32.7802 1.04586H38.0418C38.0418 1.04586 38.0564 1.04586 38.0564 1.03113V0.0147304C38.0564 0.0147304 38.0515 0 38.0418 0H38.0467Z" fill="white"/>
<path id="Vector_4" d="M0.516637 4.62109C0.516637 4.62109 0.501953 4.62109 0.501953 4.63582V7.36587C0.501953 7.36587 0.506857 7.3806 0.516637 7.3806H26.1006C26.1006 7.3806 26.1153 7.37078 26.1153 7.36587V5.68169C26.1153 5.68169 26.1202 5.66696 26.13 5.66696H38.0418C38.0418 5.66696 38.0564 5.65714 38.0564 5.65223V4.63582C38.0564 4.63582 38.0515 4.62109 38.0418 4.62109H0.511742H0.516637Z" fill="white"/>
<path id="Vector_5" d="M0.516637 9.35547C0.516637 9.35547 0.501953 9.36529 0.501953 9.3702V12.1002C0.501953 12.1002 0.506857 12.115 0.516637 12.115H19.1912C19.1912 12.115 19.2058 12.115 19.2058 12.1002V10.4161C19.2058 10.4161 19.2107 10.4013 19.2205 10.4013H38.0369C38.0369 10.4013 38.0515 10.3915 38.0515 10.3866V9.3702C38.0515 9.3702 38.0466 9.35547 38.0369 9.35547H0.506848H0.516637Z" fill="white"/>
<path id="Vector_6" d="M37.9634 52.119C37.9634 52.119 37.9537 51.4659 37.9488 51.461L32.0222 51.3972C31.9098 51.3824 31.7924 51.3775 31.6799 51.3775H28.0076C27.8071 51.3775 27.6115 51.3628 27.4159 51.3333L23.46 50.7785C23.2497 50.749 23.0346 50.7343 22.8243 50.7392L18.3305 50.8325C18.0713 50.9405 17.8415 51.0387 17.5823 51.1468L17.4797 51.245C16.8831 51.8194 14.3599 52.4283 12.6778 52.6885H0.560565C0.560565 52.6885 0.541016 52.6984 0.541016 52.7033V52.8162V53.7344C0.541016 53.7344 0.54589 53.7491 0.55567 53.7491H37.939C37.939 53.7491 37.9537 53.7393 37.9537 53.7344V52.1141H37.9634V52.119Z" fill="white"/>
<path id="Vector_7" d="M31.504 60.939C31.3866 60.9243 31.2692 60.9194 31.1519 60.9145L24.4136 60.8801C24.2767 60.9439 24.1544 60.9979 24.0175 61.0618L23.3623 61.8425C23.0786 61.9505 22.8488 62.034 22.5701 62.142L14.4284 60.8752C14.3648 60.8703 14.2964 60.8605 14.2328 60.8555L4.43343 60.4922L3.78309 60.7328C2.64863 61.1894 1.63641 61.597 0.501953 62.0536L0.56063 62.034C0.56063 62.034 0.550865 62.0438 0.545975 62.0487V63.3646C0.545975 63.3646 0.55085 63.3794 0.56063 63.3794H37.944C37.944 63.3794 37.9586 63.3695 37.9586 63.3646V61.7443C37.9586 61.7443 37.9488 61.0912 37.944 61.0863L31.504 60.939Z" fill="white"/>
<path id="Vector_8" d="M0.544922 58.5695C0.544922 58.5695 0.549796 58.5843 0.559576 58.5843H37.9429C37.9429 58.5843 37.9576 58.5745 37.9576 58.5695V56.9541C37.9576 56.9541 37.9527 56.2961 37.9429 56.2961L31.5665 56.3551L23.9969 55.9917C23.7426 55.9672 23.4883 55.9623 23.239 55.977L18.9554 57.18C18.7989 57.1898 18.6424 57.1849 18.4909 57.1701L12.4518 55.7266C12.1291 55.8395 11.8553 55.9328 11.5325 56.0457L10.799 56.7381C10.5497 56.9737 10.2465 57.342 9.91397 57.5237H0.564471C0.564471 57.5237 0.544922 57.5335 0.544922 57.5384V57.6513V58.5695Z" fill="white"/>
</g>
</svg>
