<svg width="25" height="24" viewBox="0 0 25 24" fill="none" xmlns="http://www.w3.org/2000/svg">
<g id="home">
<path id="Vector" fill-rule="evenodd" clip-rule="evenodd" d="M12.6689 2.2253C12.3685 1.9249 11.8815 1.9249 11.5811 2.2253L2.35032 11.4561C2.13033 11.6761 2.06451 12.0069 2.18358 12.2944C2.30264 12.5818 2.58313 12.7692 2.89425 12.7692H4.17628V19.1795C4.17628 19.9275 4.47344 20.6449 5.00238 21.1739C5.53133 21.7028 6.24874 22 6.99678 22H17.2532C18.0012 22 18.7186 21.7028 19.2476 21.1739C19.7765 20.6449 20.0737 19.9275 20.0737 19.1795V12.7692H21.3557C21.6669 12.7692 21.9474 12.5818 22.0664 12.2944C22.1855 12.0069 22.1197 11.6761 21.8997 11.4561L12.6689 2.2253ZM18.8221 11.4008C18.9157 11.3254 19.0273 11.2714 19.1494 11.2464C19.1995 11.2362 19.2514 11.2308 19.3044 11.2308C19.3044 11.2308 19.3045 11.2308 19.3044 11.2308H19.4987L12.125 3.85709L4.75133 11.2308H4.94551C4.9455 11.2308 4.94551 11.2308 4.94551 11.2308C4.99861 11.2308 5.05048 11.2362 5.10056 11.2464C5.45108 11.3181 5.71476 11.6283 5.71476 12C5.71476 12.002 5.71475 12.004 5.71474 12.0059V19.1795C5.71474 19.5195 5.84981 19.8456 6.09024 20.086C6.33067 20.3265 6.65676 20.4615 6.99678 20.4615H17.2532C17.5932 20.4615 17.9193 20.3265 18.1597 20.086C18.4001 19.8456 18.5352 19.5195 18.5352 19.1795V12C18.5352 11.7578 18.6471 11.5418 18.8221 11.4008Z" fill="#8C8C8C"/>
</g>
</svg>
