<svg width="16" height="16" viewBox="0 0 16 16" fill="none" xmlns="http://www.w3.org/2000/svg">
<g id="info">
<g id="Vector">
<path d="M7.48717 5.9487C7.48717 5.66547 7.71677 5.43588 8 5.43588H8.00683C8.29006 5.43588 8.51965 5.66547 8.51965 5.9487C8.51965 6.23192 8.29006 6.46152 8.00683 6.46152H8C7.71677 6.46152 7.48717 6.23192 7.48717 5.9487Z" fill="#707070"/>
<path d="M8.51282 7.99998C8.51282 7.71676 8.28322 7.48716 8 7.48716C7.71677 7.48716 7.48717 7.71676 7.48717 7.99998V11.0769C7.48717 11.3601 7.71677 11.5897 8 11.5897C8.28322 11.5897 8.51282 11.3601 8.51282 11.0769V7.99998Z" fill="#707070"/>
<path fill-rule="evenodd" clip-rule="evenodd" d="M3.28595 3.28593C4.53619 2.03569 6.23188 1.33331 8 1.33331C9.76811 1.33331 11.4638 2.03569 12.714 3.28593C13.9643 4.53618 14.6667 6.23187 14.6667 7.99998C14.6667 8.87546 14.4942 9.74236 14.1592 10.5512C13.8242 11.36 13.3331 12.095 12.714 12.714C12.095 13.3331 11.3601 13.8241 10.5512 14.1592C9.74238 14.4942 8.87547 14.6666 8 14.6666C7.12452 14.6666 6.25761 14.4942 5.44877 14.1592C4.63993 13.8241 3.90501 13.3331 3.28595 12.714C2.66689 12.095 2.17583 11.36 1.8408 10.5512C1.50577 9.74236 1.33333 8.87546 1.33333 7.99998C1.33333 6.23187 2.03571 4.53618 3.28595 3.28593ZM8 2.35895C6.5039 2.35895 5.06908 2.95327 4.01119 4.01117C2.95329 5.06907 2.35897 6.50389 2.35897 7.99998C2.35897 8.74077 2.50488 9.47431 2.78837 10.1587C3.07185 10.8431 3.48737 11.465 4.01119 11.9888C4.53501 12.5126 5.15687 12.9281 5.84127 13.2116C6.52567 13.4951 7.2592 13.641 8 13.641C8.74079 13.641 9.47432 13.4951 10.1587 13.2116C10.8431 12.9281 11.465 12.5126 11.9888 11.9888C12.5126 11.465 12.9281 10.8431 13.2116 10.1587C13.4951 9.47431 13.641 8.74077 13.641 7.99998C13.641 6.50389 13.0467 5.06907 11.9888 4.01117C10.9309 2.95327 9.49609 2.35895 8 2.35895Z" fill="#707070"/>
</g>
</g>
</svg>
