<svg width="24" height="24" viewBox="0 0 24 24" fill="none" xmlns="http://www.w3.org/2000/svg">
<g id="mobile">
<g id="Vector">
<path d="M12.7778 17.1282C12.7778 16.7034 12.4296 16.359 12 16.359C11.5704 16.359 11.2222 16.7034 11.2222 17.1282V17.1385C11.2222 17.5633 11.5704 17.9077 12 17.9077C12.4296 17.9077 12.7778 17.5633 12.7778 17.1385V17.1282Z" fill="#212121"/>
<path fill-rule="evenodd" clip-rule="evenodd" d="M5.83529 2.82611C6.37011 2.29716 7.09549 2 7.85185 2H16.1481C16.9045 2 17.6299 2.29716 18.1647 2.82611C18.6995 3.35506 19 4.07247 19 4.82051V19.1795C19 19.9275 18.6995 20.6449 18.1647 21.1739C17.6299 21.7028 16.9045 22 16.1481 22H7.85185C7.09549 22 6.37011 21.7028 5.83529 21.1739C5.30046 20.6449 5 19.9275 5 19.1795V4.82051C5 4.07247 5.30046 3.35506 5.83529 2.82611ZM7.85185 3.53846C7.50805 3.53846 7.17833 3.67353 6.93523 3.91397C6.69213 4.1544 6.55556 4.48049 6.55556 4.82051V19.1795C6.55556 19.5195 6.69213 19.8456 6.93523 20.086C7.17833 20.3265 7.50805 20.4615 7.85185 20.4615H16.1481C16.4919 20.4615 16.8217 20.3265 17.0648 20.086C17.3079 19.8456 17.4444 19.5195 17.4444 19.1795V4.82051C17.4444 4.48049 17.3079 4.1544 17.0648 3.91397C16.8217 3.67353 16.4919 3.53846 16.1481 3.53846H13.7706C13.7992 3.61866 13.8148 3.70497 13.8148 3.79487C13.8148 4.21971 13.4666 4.5641 13.037 4.5641H10.963C10.5334 4.5641 10.1852 4.21971 10.1852 3.79487C10.1852 3.70497 10.2008 3.61866 10.2294 3.53846H7.85185Z" fill="#212121"/>
</g>
</g>
</svg>
