<svg width="20" height="20" viewBox="0 0 20 20" fill="none" xmlns="http://www.w3.org/2000/svg">
<g id="close">
<path id="Vector" d="M15.6435 5.27321C15.8966 5.02009 15.8966 4.6097 15.6435 4.35659C15.3903 4.10347 14.98 4.10347 14.7268 4.35659L9.99996 9.08346L5.27308 4.35659C5.01997 4.10347 4.60958 4.10347 4.35646 4.35659C4.10335 4.6097 4.10335 5.02009 4.35646 5.27321L9.08334 10.0001L4.35646 14.727C4.10335 14.9801 4.10335 15.3905 4.35646 15.6436C4.60958 15.8967 5.01997 15.8967 5.27308 15.6436L9.99996 10.9167L14.7268 15.6436C14.98 15.8967 15.3903 15.8967 15.6435 15.6436C15.8966 15.3905 15.8966 14.9801 15.6435 14.727L10.9166 10.0001L15.6435 5.27321Z" fill="white"/>
</g>
</svg>
