<svg width="20" height="20" viewBox="0 0 20 20" fill="none" xmlns="http://www.w3.org/2000/svg">
<g id="heart">
<path id="Vector" fill-rule="evenodd" clip-rule="evenodd" d="M6.96399 3.80542C6.46559 3.75211 5.96158 3.80285 5.4837 3.95444C5.00581 4.10604 4.56441 4.3552 4.18729 4.68625C3.81016 5.0173 3.50548 5.42305 3.29243 5.87797C3.07938 6.33288 2.96258 6.8271 2.94938 7.3295C2.93619 7.8319 3.02688 8.3316 3.21574 8.79713C3.40461 9.26266 3.68756 9.68393 4.04679 10.0344L4.05083 10.0384L10.0071 15.9534L15.9635 10.0384C15.9792 10.0228 15.9955 10.0081 16.0124 9.99449C16.3465 9.65312 16.6105 9.24889 16.7889 8.80481C16.9756 8.3401 17.0647 7.84174 17.0504 7.34094C17.0362 6.84014 16.9191 6.34766 16.7063 5.89434C16.4936 5.44102 16.1898 5.03662 15.814 4.70643C15.4382 4.37625 14.9985 4.12739 14.5223 3.97544C14.0462 3.82349 13.5439 3.77172 13.0469 3.82336C12.5499 3.87501 12.0689 4.02896 11.634 4.27557C11.199 4.52219 10.8195 4.85617 10.5192 5.25661C10.3978 5.41851 10.2074 5.51352 10.0054 5.51295C9.80333 5.51239 9.61341 5.41632 9.4929 5.25374C9.19391 4.85038 8.81486 4.51346 8.37962 4.26419C7.94439 4.01493 7.46239 3.85873 6.96399 3.80542ZM16.8138 11.0023L10.458 17.314C10.2083 17.562 9.80598 17.562 9.55627 17.314L3.15311 10.9553C3.15241 10.9546 3.15171 10.9539 3.15101 10.9532C2.666 10.4794 2.28392 9.91021 2.02876 9.28128C1.77323 8.65144 1.65053 7.97538 1.66839 7.29567C1.68625 6.61595 1.84427 5.9473 2.13251 5.33183C2.42075 4.71636 2.83297 4.16739 3.3432 3.71951C3.85343 3.27162 4.45062 2.93451 5.09717 2.72941C5.74371 2.52431 6.42561 2.45566 7.09992 2.52779C7.77422 2.59991 8.42633 2.81125 9.01518 3.14849C9.37814 3.35635 9.7122 3.60928 10.0098 3.90053C10.3076 3.6124 10.6412 3.36241 11.0032 3.15715C11.5916 2.82349 12.2424 2.6152 12.9148 2.54533C13.5872 2.47546 14.2668 2.54551 14.911 2.75109C15.5552 2.95666 16.1501 3.29335 16.6585 3.74007C17.167 4.18679 17.578 4.73393 17.8658 5.34724C18.1537 5.96056 18.3121 6.62684 18.3314 7.3044C18.3506 7.98196 18.2301 8.6562 17.9775 9.28493C17.7249 9.91366 17.3456 10.4833 16.8633 10.9583C16.8474 10.974 16.8309 10.9887 16.8138 11.0023Z" fill="#8C8C8C"/>
</g>
</svg>
