<svg width="16" height="16" viewBox="0 0 16 16" fill="none" xmlns="http://www.w3.org/2000/svg">
<g id="external-link">
<g id="Vector">
<path d="M12.7157 2.47611L6.83404 8.35776C6.61089 8.58092 6.61089 8.94273 6.83404 9.16588C7.0572 9.38904 7.41901 9.38904 7.64217 9.16588L13.5238 3.28423V5.7142C13.5238 6.0298 13.7797 6.28563 14.0952 6.28563C14.4108 6.28563 14.6667 6.0298 14.6667 5.7142V1.90468C14.6667 1.75844 14.6109 1.6122 14.4993 1.50062C14.4445 1.44583 14.3814 1.4045 14.314 1.37661C14.2466 1.34867 14.1727 1.33325 14.0952 1.33325H10.2857C9.97013 1.33325 9.7143 1.58909 9.7143 1.90468C9.7143 2.22027 9.97013 2.47611 10.2857 2.47611H12.7157Z" fill="#212121"/>
<path d="M1.94702 3.47074C2.33996 3.07781 2.87289 2.85706 3.42858 2.85706H8.00001C8.3156 2.85706 8.57144 3.1129 8.57144 3.42849C8.57144 3.74408 8.3156 3.99992 8.00001 3.99992H3.42858C3.17599 3.99992 2.93375 4.10026 2.75515 4.27886C2.57654 4.45747 2.4762 4.69971 2.4762 4.9523V12.5713C2.4762 12.8239 2.57654 13.0662 2.75515 13.2448C2.93375 13.4234 3.17599 13.5237 3.42858 13.5237H11.0476C11.3002 13.5237 11.5425 13.4234 11.7211 13.2448C11.8997 13.0662 12 12.8239 12 12.5713V7.99992C12 7.68433 12.2558 7.42849 12.5714 7.42849C12.887 7.42849 13.1429 7.68433 13.1429 7.99992V12.5713C13.1429 13.127 12.9221 13.66 12.5292 14.0529C12.1363 14.4458 11.6033 14.6666 11.0476 14.6666H3.42858C2.87289 14.6666 2.33996 14.4458 1.94702 14.0529C1.55409 13.66 1.33334 13.127 1.33334 12.5713V4.9523C1.33334 4.39661 1.55409 3.86368 1.94702 3.47074Z" fill="#212121"/>
</g>
</g>
</svg>
