<svg width="20" height="20" viewBox="0 0 20 20" fill="none" xmlns="http://www.w3.org/2000/svg">
<g id="search">
<path id="Vector" fill-rule="evenodd" clip-rule="evenodd" d="M8.29056 1.66675C7.42069 1.66675 6.55934 1.83808 5.75569 2.17096C4.95204 2.50385 4.22182 2.99176 3.60673 3.60685C2.99164 4.22194 2.50373 4.95216 2.17084 5.75581C1.83796 6.55946 1.66663 7.42081 1.66663 8.29068C1.66663 9.16055 1.83796 10.0219 2.17084 10.8255C2.50373 11.6292 2.99164 12.3594 3.60673 12.9745C4.22182 13.5896 4.95204 14.0775 5.75569 14.4104C6.55934 14.7433 7.42069 14.9146 8.29056 14.9146C9.16042 14.9146 10.0218 14.7433 10.8254 14.4104C11.431 14.1596 11.9948 13.8207 12.4991 13.4058L17.239 18.1457C17.4893 18.396 17.8952 18.396 18.1455 18.1457C18.3959 17.8953 18.3959 17.4895 18.1455 17.2391L13.4057 12.4993C13.8206 11.9949 14.1595 11.4311 14.4103 10.8255C14.7432 10.0219 14.9145 9.16055 14.9145 8.29068C14.9145 7.42081 14.7432 6.55946 14.4103 5.75581C14.0774 4.95216 13.5895 4.22194 12.9744 3.60685C12.3593 2.99176 11.6291 2.50385 10.8254 2.17096C10.0218 1.83808 9.16042 1.66675 8.29056 1.66675ZM6.24631 3.35543C6.89442 3.08697 7.58905 2.9488 8.29056 2.9488C8.99206 2.9488 9.6867 3.08697 10.3348 3.35543C10.9829 3.62388 11.5718 4.01736 12.0678 4.5134C12.5639 5.00944 12.9574 5.59832 13.2258 6.24643C13.4943 6.89454 13.6324 7.58917 13.6324 8.29068C13.6324 8.99219 13.4943 9.68682 13.2258 10.3349C12.9574 10.983 12.5639 11.5719 12.0678 12.068C11.5718 12.564 10.9829 12.9575 10.3348 13.2259C9.6867 13.4944 8.99206 13.6326 8.29056 13.6326C7.58905 13.6326 6.89442 13.4944 6.24631 13.2259C5.5982 12.9575 5.00932 12.564 4.51328 12.068C4.01724 11.5719 3.62376 10.983 3.3553 10.3349C3.08685 9.68682 2.94868 8.99219 2.94868 8.29068C2.94868 7.58917 3.08685 6.89454 3.3553 6.24643C3.62376 5.59832 4.01724 5.00944 4.51328 4.5134C5.00932 4.01736 5.5982 3.62388 6.24631 3.35543Z" fill="#212121"/>
</g>
</svg>
