<svg width="20" height="20" viewBox="0 0 20 20" fill="none" xmlns="http://www.w3.org/2000/svg">
<g id="close-circle">
<g id="Vector">
<path d="M8.77527 7.89139C8.5312 7.64731 8.13547 7.64731 7.89139 7.89139C7.64731 8.13547 7.64731 8.5312 7.89139 8.77527L9.11612 10L7.89139 11.2247C7.64731 11.4688 7.64731 11.8645 7.89139 12.1086C8.13547 12.3527 8.5312 12.3527 8.77527 12.1086L10 10.8839L11.2247 12.1086C11.4688 12.3527 11.8645 12.3527 12.1086 12.1086C12.3527 11.8645 12.3527 11.4688 12.1086 11.2247L10.8839 10L12.1086 8.77527C12.3527 8.5312 12.3527 8.13547 12.1086 7.89139C11.8645 7.64731 11.4688 7.64731 11.2247 7.89139L10 9.11612L8.77527 7.89139Z" fill="#707070"/>
<path fill-rule="evenodd" clip-rule="evenodd" d="M10 1.875C8.93301 1.875 7.87647 2.08516 6.8907 2.49348C5.90493 2.9018 5.00923 3.50028 4.25476 4.25476C3.50028 5.00923 2.9018 5.90493 2.49348 6.8907C2.08516 7.87647 1.875 8.93301 1.875 10C1.875 11.067 2.08516 12.1235 2.49348 13.1093C2.9018 14.0951 3.50028 14.9908 4.25476 15.7452C5.00923 16.4997 5.90493 17.0982 6.8907 17.5065C7.87647 17.9148 8.93301 18.125 10 18.125C11.067 18.125 12.1235 17.9148 13.1093 17.5065C14.0951 17.0982 14.9908 16.4997 15.7452 15.7452C16.4997 14.9908 17.0982 14.0951 17.5065 13.1093C17.9148 12.1235 18.125 11.067 18.125 10C18.125 8.93301 17.9148 7.87647 17.5065 6.8907C17.0982 5.90493 16.4997 5.00923 15.7452 4.25476C14.9908 3.50028 14.0951 2.9018 13.1093 2.49348C12.1235 2.08516 11.067 1.875 10 1.875ZM7.36905 3.64833C8.20316 3.30283 9.09716 3.125 10 3.125C10.9028 3.125 11.7968 3.30283 12.6309 3.64833C13.4651 3.99383 14.223 4.50024 14.8614 5.13864C15.4998 5.77704 16.0062 6.53494 16.3517 7.36905C16.6972 8.20316 16.875 9.09716 16.875 10C16.875 10.9028 16.6972 11.7968 16.3517 12.6309C16.0062 13.4651 15.4998 14.223 14.8614 14.8614C14.223 15.4998 13.4651 16.0062 12.6309 16.3517C11.7968 16.6972 10.9028 16.875 10 16.875C9.09716 16.875 8.20316 16.6972 7.36905 16.3517C6.53494 16.0062 5.77704 15.4998 5.13864 14.8614C4.50024 14.223 3.99383 13.4651 3.64833 12.6309C3.30283 11.7968 3.125 10.9028 3.125 10C3.125 9.09716 3.30283 8.20316 3.64833 7.36905C3.99383 6.53494 4.50024 5.77704 5.13864 5.13864C5.77704 4.50024 6.53494 3.99383 7.36905 3.64833Z" fill="#707070"/>
</g>
</g>
</svg>
