<svg width="16" height="16" viewBox="0 0 16 16" fill="none" xmlns="http://www.w3.org/2000/svg">
<g id="send">
<path id="Vector" fill-rule="evenodd" clip-rule="evenodd" d="M14.3543 8.51806L2.61429 14.5831C2.6001 14.5904 2.58562 14.597 2.57089 14.603C2.40383 14.6709 2.22145 14.6848 2.04692 14.6429C1.87263 14.601 1.714 14.5054 1.59113 14.3682C1.47169 14.235 1.38946 14.0694 1.35356 13.8898C1.31801 13.7119 1.32929 13.5271 1.38613 13.3555L3.1049 7.99992L1.38613 2.64433C1.32929 2.47277 1.31801 2.28799 1.35356 2.11007C1.38943 1.93058 1.47157 1.76508 1.59088 1.63188C1.71379 1.49452 1.87251 1.39884 2.04692 1.35696C2.22145 1.31506 2.40383 1.32892 2.57089 1.3968C2.58562 1.40279 2.6001 1.40946 2.61429 1.41679L14.3565 7.48291C14.3711 7.49021 14.3853 7.49818 14.3992 7.50679C14.489 7.56236 14.5604 7.6433 14.6067 7.73847C14.6226 7.77114 14.6356 7.80549 14.6453 7.84106C14.6592 7.89195 14.6666 7.94534 14.6666 7.99992C14.6666 8.05055 14.6603 8.10016 14.6482 8.14769C14.637 8.19219 14.6208 8.23456 14.6003 8.27408C14.5579 8.35607 14.4966 8.42681 14.4209 8.47891C14.3997 8.49354 14.3774 8.50664 14.3543 8.51806ZM4.06311 7.42848L2.52767 2.64412L11.7887 7.42848H4.06311ZM4.06309 8.5714L2.52767 13.3557L11.7886 8.5714H4.06309Z" fill="#8C8C8C"/>
</g>
</svg>
