<svg width="16" height="17" viewBox="0 0 16 17" fill="none" xmlns="http://www.w3.org/2000/svg">
<g id="copy">
<g id="Vector">
<path d="M2.5 3.83333C2.5 3.37614 2.87614 3 3.33333 3H10C10.1563 3 10.2438 3.03738 10.3083 3.08422C10.3836 3.13891 10.4658 3.2348 10.563 3.40967C10.6972 3.65101 11.0017 3.73785 11.243 3.60364C11.4843 3.46944 11.5712 3.165 11.437 2.92366C11.3062 2.68853 11.1384 2.45109 10.8957 2.27495C10.6422 2.09095 10.3437 2 10 2H3.33333C2.32386 2 1.5 2.82386 1.5 3.83333V10.5L1.5 10.5012C1.50078 10.8246 1.58691 11.142 1.74969 11.4214C1.91247 11.7008 2.14613 11.9322 2.42704 12.0924C2.66693 12.2291 2.97228 12.1455 3.10904 11.9056C3.2458 11.6657 3.16219 11.3604 2.9223 11.2236C2.79433 11.1507 2.68789 11.0452 2.61374 10.918C2.53968 10.7908 2.50045 10.6464 2.5 10.4993V3.83333Z" fill="#212121"/>
<path fill-rule="evenodd" clip-rule="evenodd" d="M6.44467 4.66667C5.8405 4.66667 5.26109 4.90667 4.83388 5.33388C4.40667 5.76109 4.16667 6.3405 4.16667 6.94467V12.722C4.16667 13.0212 4.22559 13.3174 4.34007 13.5938C4.45455 13.8701 4.62235 14.1213 4.83388 14.3328C5.04541 14.5443 5.29653 14.7121 5.57291 14.8266C5.84929 14.9411 6.14552 15 6.44467 15H12.222C12.5212 15 12.8174 14.9411 13.0938 14.8266C13.3701 14.7121 13.6213 14.5443 13.8328 14.3328C14.0443 14.1213 14.2121 13.8701 14.3266 13.5938C14.4411 13.3174 14.5 13.0212 14.5 12.722V6.94467C14.5 6.64552 14.4411 6.34929 14.3266 6.07291C14.2121 5.79653 14.0443 5.54541 13.8328 5.33388C13.6213 5.12235 13.3701 4.95455 13.0938 4.84007C12.8174 4.72559 12.5212 4.66667 12.222 4.66667H6.44467ZM5.54098 6.04098C5.78066 5.80131 6.10572 5.66667 6.44467 5.66667H12.222C12.3898 5.66667 12.556 5.69972 12.7111 5.76395C12.8661 5.82817 13.007 5.92231 13.1257 6.04098C13.2444 6.15966 13.3385 6.30054 13.4027 6.4556C13.4669 6.61065 13.5 6.77684 13.5 6.94467V12.722C13.5 12.8898 13.4669 13.056 13.4027 13.2111C13.3385 13.3661 13.2444 13.507 13.1257 13.6257C13.007 13.7444 12.8661 13.8385 12.7111 13.9027C12.556 13.9669 12.3898 14 12.222 14H6.44467C6.27684 14 6.11065 13.9669 5.9556 13.9027C5.80054 13.8385 5.65966 13.7444 5.54098 13.6257C5.42231 13.507 5.32817 13.3661 5.26395 13.2111C5.19972 13.056 5.16667 12.8898 5.16667 12.722V6.94467C5.16667 6.60572 5.30131 6.28066 5.54098 6.04098Z" fill="#212121"/>
</g>
</g>
</svg>
