<svg width="16" height="16" viewBox="0 0 16 16" fill="none" xmlns="http://www.w3.org/2000/svg">
<g id="download">
<g id="Vector">
<path d="M8.54288 1.87355C8.54288 1.57502 8.29983 1.33301 8.00002 1.33301C7.70021 1.33301 7.45716 1.57502 7.45716 1.87355V9.21722L4.76483 6.53637C4.55283 6.32528 4.20911 6.32528 3.99711 6.53637C3.78512 6.74747 3.78512 7.08972 3.99711 7.30081L7.61616 10.9044C7.66821 10.9562 7.7282 10.9953 7.79222 11.0217C7.85623 11.0482 7.92641 11.0627 8.00002 11.0627C8.07363 11.0627 8.14381 11.0482 8.20782 11.0217C8.27184 10.9953 8.33183 10.9562 8.38388 10.9044L12.0029 7.30081C12.2149 7.08972 12.2149 6.74747 12.0029 6.53637C11.7909 6.32528 11.4472 6.32528 11.2352 6.53637L8.54288 9.21722V1.87355Z" fill="#212121"/>
<path d="M2.20954 10.7024C2.50936 10.7024 2.7524 10.9444 2.7524 11.2429V12.6844C2.7524 12.9233 2.84772 13.1524 3.0174 13.3214C3.18708 13.4903 3.41721 13.5853 3.65716 13.5853H12.3429C12.5828 13.5853 12.813 13.4903 12.9826 13.3214C13.1523 13.1524 13.2476 12.9233 13.2476 12.6844V11.2429C13.2476 10.9444 13.4907 10.7024 13.7905 10.7024C14.0903 10.7024 14.3334 10.9444 14.3334 11.2429V12.6844C14.3334 13.21 14.1236 13.7141 13.7504 14.0858C13.3771 14.4575 12.8708 14.6663 12.3429 14.6663H3.65716C3.12926 14.6663 2.62297 14.4575 2.24968 14.0858C1.8764 13.7141 1.66669 13.21 1.66669 12.6844V11.2429C1.66669 10.9444 1.90973 10.7024 2.20954 10.7024Z" fill="#212121"/>
</g>
</g>
</svg>
