<svg width="20" height="20" viewBox="0 0 20 20" fill="none" xmlns="http://www.w3.org/2000/svg">
<g id="check-circle">
<g id="Vector">
<path d="M13.0175 8.74389C13.2678 8.49356 13.2678 8.08768 13.0175 7.83735C12.7671 7.58701 12.3612 7.58701 12.1109 7.83735L9.14538 10.8029L7.88925 9.54675C7.63892 9.29641 7.23304 9.29641 6.98271 9.54675C6.73237 9.79708 6.73237 10.203 6.98271 10.4533L8.69211 12.1627C8.94244 12.413 9.34832 12.413 9.59866 12.1627L13.0175 8.74389Z" fill="#707070"/>
<path fill-rule="evenodd" clip-rule="evenodd" d="M10.0001 1.66669C8.90573 1.66669 7.8221 1.88224 6.81105 2.30102C5.80001 2.71981 4.88135 3.33364 4.10752 4.10746C3.3337 4.88129 2.71987 5.79995 2.30109 6.81099C1.8823 7.82204 1.66675 8.90567 1.66675 10C1.66675 11.0944 1.8823 12.178 2.30109 13.189C2.71987 14.2001 3.3337 15.1188 4.10752 15.8926C4.88135 16.6664 5.80001 17.2802 6.81105 17.699C7.8221 18.1178 8.90573 18.3334 10.0001 18.3334C11.0944 18.3334 12.1781 18.1178 13.1891 17.699C14.2002 17.2802 15.1188 16.6664 15.8926 15.8926C16.6665 15.1188 17.2803 14.2001 17.6991 13.189C18.1179 12.178 18.3334 11.0944 18.3334 10C18.3334 8.90567 18.1179 7.82204 17.6991 6.81099C17.2803 5.79994 16.6665 4.88129 15.8926 4.10746C15.1188 3.33364 14.2002 2.71981 13.1891 2.30102C12.1781 1.88224 11.0944 1.66669 10.0001 1.66669ZM7.30167 3.48549C8.15717 3.13113 9.07409 2.94874 10.0001 2.94874C10.9261 2.94874 11.843 3.13113 12.6985 3.48549C13.554 3.83985 14.3313 4.35924 14.9861 5.01401C15.6409 5.66878 16.1603 6.44611 16.5146 7.30161C16.869 8.15711 17.0514 9.07403 17.0514 10C17.0514 10.926 16.869 11.8429 16.5146 12.6984C16.1603 13.5539 15.6409 14.3313 14.9861 14.986C14.3313 15.6408 13.554 16.1602 12.6985 16.5146C11.843 16.8689 10.9261 17.0513 10.0001 17.0513C9.07409 17.0513 8.15717 16.8689 7.30167 16.5146C6.44617 16.1602 5.66884 15.6408 5.01407 14.986C4.3593 14.3313 3.83991 13.5539 3.48555 12.6984C3.13119 11.8429 2.9488 10.926 2.9488 10C2.9488 9.07403 3.13119 8.15711 3.48555 7.30161C3.83991 6.44611 4.3593 5.66878 5.01407 5.01401C5.66884 4.35924 6.44617 3.83985 7.30167 3.48549Z" fill="#707070"/>
</g>
</g>
</svg>
