<svg width="131" height="19" viewBox="0 0 131 19" fill="none" xmlns="http://www.w3.org/2000/svg">
<g id="Group 1">
<path id="Vector" d="M22.7561 1.63372L22.7189 1.64611L22.6222 1.57422L21.685 2.38736C21.6131 2.44933 21.6007 2.54602 21.6478 2.63031L22.1957 3.37155V6.57949H17.9286C18.365 6.39604 19.3865 5.94732 19.4956 5.07221C19.6047 4.29377 18.9724 3.54013 17.6732 3.54013C17.0161 3.54013 16.4583 3.7459 16.007 3.92935L15.4714 4.87636V5.02262C15.9574 5.59281 16.3467 6.12829 16.7112 6.57949H4.35851V1.59653H4.26181L3.77584 2.72699L3.76344 3.05423C3.76344 3.07902 3.76344 3.10381 3.77584 3.13852V3.56492C3.72625 4.86644 3.32706 5.69198 2.71711 6.27456C2.42453 4.62101 1.81707 3.07902 0.966614 1.93616L0.760819 1.94856L0.455846 2.38488C0.250051 2.68981 0.0541739 2.97986 0.284763 3.32197L0.674038 3.88225L0.904628 3.74837C1.54929 4.38054 2.25345 5.24326 2.52123 6.45801C1.82947 7.0282 0.917025 7.37032 -0.0078125 7.75953V7.93059L2.39974 8.23551C3.1287 7.37279 3.50558 6.16796 3.71385 4.95321H3.77584V8.03967H15.6524C16.2227 8.03967 16.855 7.68764 17.3434 7.29842C18.1344 8.01488 18.4369 8.03967 19.5204 8.03967H22.28L22.7536 6.4828V3.45584L23.3239 2.95755C23.1776 2.78649 22.9222 2.54354 22.7536 2.31299V1.63124L22.7561 1.63372ZM15.8632 4.94081C16.1558 4.81934 16.7632 4.72265 17.2864 4.72265C17.9906 4.73505 18.7096 4.91602 18.66 5.4515C18.6104 6.03409 17.7129 6.42331 17.4922 6.55718C16.8971 6.4357 16.4112 5.64487 15.8632 4.94081Z" fill="#BA9863"/>
<path id="Vector_2" d="M24.7253 6.56822V1.59766H24.6286L24.1426 2.72812V8.40274H24.2393L24.7253 6.56822Z" fill="#BA9863"/>
<path id="Vector_3" d="M29.0301 2.41447L29.0549 2.38968L29.6748 3.00945L30.2575 2.41447C30.3071 2.36489 30.3071 2.293 30.2575 2.24342L29.6748 1.64844L29.0549 2.26821L29.0301 2.24342L28.4475 1.64844L27.7656 2.33019L28.4475 3.01193L29.0301 2.41695V2.41447Z" fill="#BA9863"/>
<path id="Vector_4" d="M46.1827 2.4627C46.2422 2.41312 46.2422 2.34123 46.1827 2.27925L45.5753 1.67188L44.8711 2.37593L45.5753 3.07999L46.1827 2.46022V2.4627Z" fill="#BA9863"/>
<path id="Vector_5" d="M53.0996 8.04102L53.5855 6.08502C53.5855 5.2223 53.4517 2.75561 51.9317 2.75561C51.0069 2.75561 50.5333 3.64313 50.3647 4.28769C49.9879 5.6487 50.8879 6.19658 51.5921 6.19658C52.2962 6.19658 52.7599 5.68589 52.9781 5.35865C53.1839 5.85695 53.3054 6.34285 53.3426 6.5858H48.1159C48.577 5.04133 47.6423 3.91087 46.4745 3.80179C46.3654 3.78939 46.2067 3.81418 46.0976 3.86129C45.1603 4.28769 44.2504 5.02893 43.5214 5.73299L43.4718 5.69581L43.7768 4.94217V3.43488L44.3471 2.93659C44.2008 2.76553 43.9454 2.52258 43.7768 2.29203V1.60036H43.7148L43.6429 1.55078L42.7057 2.36392C42.6338 2.4259 42.6214 2.52258 42.6685 2.60687L43.2041 3.33572V6.03296C43.0206 6.22633 42.852 6.40978 42.6933 6.58084H32.0911C32.049 6.58084 32.0118 6.59076 31.9796 6.60563L31.9324 6.58084H31.0448V3.04319H30.9481L30.4497 3.73485V4.0497L28.6992 5.22974C28.3595 5.46029 28.1637 5.59416 28.0422 5.82472L27.8711 6.91799C27.9083 7.12376 28.1761 7.29482 28.4662 7.3791C28.7463 7.47579 29.6811 7.68403 29.9985 7.76832L30.1819 7.69643L30.4497 6.93039V8.03606H31.9324L31.9796 8.01127C32.0118 8.02614 32.049 8.03606 32.0911 8.03606H47.7117L47.8332 7.58735C48.039 7.86748 48.3812 8.03606 48.8051 8.03606H48.8647L48.8771 8.0311L48.8895 8.03606H53.0946L53.0996 8.04102ZM52.0532 5.13553C51.4334 5.13553 50.6548 4.86779 50.4242 4.47858C50.7044 4.00507 51.2871 3.84641 51.5797 3.84641C52.1028 3.83402 52.5268 4.39429 52.8318 5.01406C52.6012 5.08595 52.321 5.13553 52.0532 5.13553ZM30.4522 6.37755C29.7828 6.21889 28.9323 6.06023 28.2876 5.81728L29.7828 5.03885C29.9885 4.92977 30.2092 4.72401 30.3183 4.51576L30.4522 4.27281V6.37508V6.37755ZM42.9487 6.58332C43.8363 5.84207 44.9793 5.30659 46.1447 5.00414C47.4216 5.01654 47.9795 5.89165 47.9795 6.58332H42.9462H42.9487Z" fill="#BA9863"/>
<path id="Vector_6" d="M52.4562 1.59942C52.5182 1.54984 52.5182 1.47795 52.4562 1.41597L51.8487 0.808594L51.1445 1.51265L51.8487 2.21671L52.4562 1.59694V1.59942Z" fill="#BA9863"/>
<path id="Vector_7" d="M60.102 7.39616C60.4069 6.84828 60.8433 6.50865 61.4161 6.37478V6.50865C61.4161 7.43334 61.9516 8.04072 62.8616 8.04072H62.9633C63.841 8.00601 64.5377 7.57961 64.7485 7.57961C64.8204 7.57961 64.9072 7.6168 64.9667 7.63911L66.4122 8.35556H66.5833L67.0097 7.14081L65.9163 6.47146C65.7328 6.33759 65.6485 6.16653 65.6485 5.86408V3.45689L66.2188 2.9586C66.0601 2.78754 65.8171 2.54459 65.6485 2.30164V1.63229H65.5989L65.5146 1.57031L64.5774 2.38345C64.5055 2.44543 64.4931 2.54211 64.5402 2.6264L65.0758 3.36765V5.51949C65.0758 5.76244 65.1353 5.993 65.2344 6.20124C64.6394 6.48138 63.6178 6.57806 62.8641 6.57806H62.3037C62.0979 6.57806 61.9392 6.48138 61.8425 6.32271C61.8797 6.32271 61.9268 6.31032 61.964 6.31032H62.3037L62.5219 5.35091L62.4252 5.15755L62.1946 5.14515C60.6871 5.08317 58.949 3.77174 57.9895 3.77174C57.5531 3.77174 57.1985 4.03948 57.0051 4.56257L56.7869 5.15755L56.8588 5.20713C56.9555 5.07326 57.1266 4.77081 57.4663 4.77081C58.0862 4.77081 59.8615 5.7674 61.1731 6.16901C60.6623 6.39957 59.8962 6.58302 58.7903 6.58302H55.2174V1.60006H55.1207L54.6348 2.73052V8.0432H59.0606C59.4747 8.0432 59.8639 7.80025 60.1069 7.39864H60.102V7.39616Z" fill="#BA9863"/>
<path id="Vector_8" d="M70.3993 2.41447C70.3993 2.41447 70.4117 2.40208 70.4241 2.38968L71.044 3.00945L71.6266 2.41447C71.6762 2.36489 71.6762 2.293 71.6266 2.24342L71.044 1.64844L70.4241 2.26821C70.4241 2.26821 70.4117 2.25581 70.3993 2.24342L69.8166 1.64844L69.1348 2.33019L69.8166 3.01193L70.3993 2.41695V2.41447Z" fill="#BA9863"/>
<path id="Vector_9" d="M84.3936 8.95312L83.7737 9.5605C83.7737 9.5605 83.7613 9.5481 83.7489 9.53571L83.1662 8.95312L82.4844 9.62248L83.1662 10.3042L83.7489 9.70925C83.7489 9.70925 83.7613 9.69685 83.7737 9.68446L84.3936 10.3042L84.9762 9.70925C85.0258 9.65966 85.0258 9.58777 84.9762 9.53819L84.3936 8.9556V8.95312Z" fill="#BA9863"/>
<path id="Vector_10" d="M95.687 5.86656V3.45937L96.2573 2.96108C96.0986 2.79002 95.8556 2.54707 95.687 2.30412V1.63477H95.6374L95.5531 1.57279L94.6159 2.38593C94.544 2.44791 94.5316 2.54459 94.5787 2.62888L95.1143 3.37013V5.52197C95.1143 5.76492 95.1763 5.99547 95.273 6.20372C94.6779 6.48385 93.6564 6.58054 92.9026 6.58054H92.8307C92.3571 6.58054 92.1984 6.40948 92.1736 5.98556V3.45689L92.7439 2.9586C92.5976 2.78754 92.3422 2.54459 92.1736 2.31404V1.63229L92.1364 1.64468L92.0397 1.57279L91.1025 2.38593C91.0306 2.44791 91.0182 2.54459 91.0653 2.62888L91.6133 3.37013V6.57806H89.1685L86.5304 3.88082L90.0934 2.68838V1.67939L89.9843 1.57031L86.5205 3.01562L86.1436 4.93691L87.6511 6.57806H85.5014C84.9906 6.57806 84.8444 6.3723 84.8444 5.8616V4.82783H84.7105C84.5766 5.31373 84.3832 6.01779 84.3584 6.57806H73.4661C73.424 6.57806 73.3868 6.58798 73.3546 6.60285L73.3074 6.57806H72.4198V3.04041H72.3231L71.8247 3.73207V4.04692L70.0742 5.22696C69.7345 5.45751 69.5387 5.59138 69.4172 5.82194L69.2461 6.91522C69.2833 7.12098 69.5511 7.29204 69.8412 7.37632C70.1213 7.47301 71.0561 7.68125 71.3735 7.76554L71.5569 7.69365L71.8247 6.92761V8.03328H73.3074L73.3546 8.00849C73.3868 8.02337 73.424 8.03328 73.4661 8.03328H83.8972L84.3956 7.08627C84.5047 7.65646 84.8939 8.03328 85.4543 8.03328H87.4974L88.0453 6.98711L88.9925 8.03328H91.229L91.7273 7.08627C91.8364 7.65646 92.2257 8.03328 92.7861 8.03328H92.972C93.8671 8.01097 94.5787 7.57217 94.7919 7.57217C94.8638 7.57217 94.9506 7.60936 95.0101 7.63167L96.4557 8.34812H96.6267L97.0532 7.13337L95.9598 6.46402C95.7763 6.33015 95.692 6.15909 95.692 5.85665L95.687 5.86656ZM71.8223 6.37725C71.1528 6.21859 70.3023 6.05993 69.6577 5.81698L71.1528 5.03855C71.3586 4.92947 71.5793 4.72371 71.6884 4.51546L71.8223 4.27251V6.37477V6.37725Z" fill="#BA9863"/>
<path id="Vector_11" d="M98.1066 1.59766H98.0099L97.5215 2.72812V8.40274H97.6207L98.1066 6.56822V1.59766Z" fill="#BA9863"/>
<path id="Vector_12" d="M102.409 2.41447C102.409 2.41447 102.421 2.40208 102.434 2.38968L103.054 3.00945L103.636 2.41447C103.686 2.36489 103.686 2.293 103.636 2.24342L103.054 1.64844L102.434 2.26821L102.409 2.24342L101.826 1.64844L101.145 2.33019L101.826 3.01193L102.409 2.41695V2.41447Z" fill="#BA9863"/>
<path id="Vector_13" d="M116.427 4.18931H116.9L117.156 3.59433L117.094 3.48525H116.558C116.486 3.48525 116.412 3.48525 116.328 3.49765C116.048 3.42576 115.792 3.2547 115.72 3.03654C115.829 2.91507 116.025 2.86548 116.206 2.86548C116.437 2.86548 116.667 2.93738 116.767 3.02414L116.851 3.01175L116.985 2.7688C116.935 2.58535 116.767 2.36719 116.462 2.36719C116.122 2.36719 115.817 2.63493 115.695 2.98696C115.599 3.2423 115.633 3.48525 115.757 3.66871C115.636 3.7282 115.502 3.82737 115.381 3.94884L115.271 4.44714L115.343 4.50664C115.817 4.2389 116.013 4.19179 116.424 4.19179H116.427V4.18931Z" fill="#BA9863"/>
<path id="Vector_14" d="M119.649 8.95312L119.03 9.5605L119.005 9.53571L118.422 8.95312L117.74 9.62248L118.422 10.3042L119.005 9.70925L119.03 9.68446L119.649 10.3042L120.232 9.70925C120.282 9.65966 120.282 9.58777 120.232 9.53819L119.649 8.9556V8.95312Z" fill="#BA9863"/>
<path id="Vector_15" d="M122.396 8.01345C122.723 8.95054 123.442 9.61742 124.535 9.61742C125.021 9.61742 125.483 9.48355 125.837 9.13152C125.887 8.93815 126.008 8.44977 126.08 8.03824H128.232L128.706 6.48138V3.45442L129.276 2.95612C129.13 2.78506 128.875 2.54211 128.706 2.31156V1.62981L128.669 1.64221L128.572 1.57031L127.635 2.38345C127.563 2.44543 127.551 2.54211 127.598 2.6264L128.146 3.36765V6.57558H125.18C125.351 6.27065 125.46 5.91862 125.46 5.5071C125.46 4.60719 124.974 3.98742 124.062 3.78165L123.831 3.81884C123.127 4.23285 122.239 5.30133 122.19 6.56566C122.106 6.57806 122.031 6.57806 121.972 6.57806H120.757C120.246 6.57806 120.1 6.3723 120.1 5.8616V4.82783H119.966C119.832 5.31373 119.639 6.01779 119.614 6.57806H117.511C117 6.57806 116.854 6.3723 116.854 5.8616V4.82783H116.72C116.586 5.31373 116.393 6.01779 116.368 6.57806H105.476C105.434 6.57806 105.397 6.58798 105.364 6.60285L105.317 6.57806H104.43V3.04041H104.333L103.834 3.73207V4.04692L102.084 5.22696C101.744 5.45751 101.548 5.59138 101.427 5.82194L101.256 6.91521C101.293 7.12098 101.561 7.29204 101.851 7.37632C102.131 7.47301 103.066 7.68125 103.383 7.76554L103.567 7.69365L103.834 6.92761V8.03328H105.317L105.364 8.00849C105.397 8.02336 105.434 8.03328 105.476 8.03328H115.907L116.405 7.08627C116.514 7.65646 116.904 8.03328 117.464 8.03328H119.155L119.653 7.08627C119.763 7.65646 120.152 8.03328 120.712 8.03328H121.964C122.111 8.03328 122.257 8.02089 122.403 8.00849L122.396 8.01345ZM125.909 8.1969C125.654 8.35556 125.034 8.41506 124.498 8.35556C124.025 8.30598 123.526 8.1498 123.125 7.90685C123.308 7.85727 123.489 7.81016 123.673 7.74819C124.84 7.69861 125.411 7.91924 125.909 8.1969ZM124.074 4.9022C124.523 4.9146 125.326 5.15754 125.326 5.55916C125.326 6.19132 123.358 6.50617 122.299 6.56814C122.433 5.70542 123.648 4.98897 124.074 4.9022ZM103.832 6.37477C103.163 6.21611 102.312 6.05745 101.667 5.8145L103.163 5.03607C103.368 4.92699 103.589 4.72123 103.698 4.51298L103.832 4.27003V6.3723V6.37477Z" fill="#BA9863"/>
<path id="Vector_16" d="M130.674 6.56822V1.59766H130.578L130.092 2.72812V8.40274H130.188L130.674 6.56822Z" fill="#BA9863"/>
<path id="Vector_17" d="M3.58212 15.54C3.89949 15.3813 4.14991 15.1607 4.33339 14.883C4.51439 14.6029 4.60613 14.2831 4.60613 13.9187C4.60613 13.5542 4.51935 13.2344 4.34579 12.9593C4.17223 12.6816 3.93172 12.4659 3.62427 12.3097C3.31681 12.1536 2.96225 12.0742 2.56058 12.0742H0.490234V17.9422H1.46218V15.7804H2.49364L3.74328 17.9422H4.84168L3.45071 15.597C3.49534 15.5796 3.53997 15.5623 3.58212 15.54ZM1.4597 12.9642H2.52339C2.84076 12.9642 3.1011 13.0535 3.30194 13.232C3.50277 13.4104 3.60443 13.641 3.60443 13.9187C3.60443 14.1021 3.55732 14.2682 3.46558 14.4145C3.37384 14.5607 3.25235 14.6748 3.10606 14.7591C2.95729 14.8434 2.78869 14.8855 2.59777 14.8855H1.45722V12.9667L1.4597 12.9642Z" fill="#BA9863"/>
<path id="Vector_18" d="M9.94875 12.3658C9.50493 12.1055 8.99168 11.9766 8.41149 11.9766C7.8313 11.9766 7.32797 12.1055 6.88663 12.3658C6.44528 12.6261 6.09816 12.9831 5.84277 13.4392C5.58739 13.8954 5.46094 14.4185 5.46094 15.011C5.46094 15.6035 5.58739 16.129 5.84277 16.5877C6.09816 17.0463 6.44776 17.4033 6.89406 17.6611C7.34037 17.9189 7.85609 18.0478 8.43629 18.0478C9.01648 18.0478 9.51981 17.9189 9.95867 17.6611C10.3975 17.4033 10.7422 17.0463 10.9901 16.5877C11.2381 16.129 11.362 15.6035 11.362 15.011C11.362 14.4185 11.2381 13.8954 10.9901 13.4392C10.7422 12.9831 10.3951 12.6261 9.95123 12.3658H9.94875ZM10.1248 16.1216C9.95867 16.4439 9.73304 16.6967 9.44047 16.8802C9.15037 17.0636 8.81316 17.1578 8.43381 17.1578C8.05445 17.1578 7.70485 17.0661 7.40731 16.8802C7.1073 16.6967 6.87423 16.4439 6.70315 16.1216C6.53206 15.7993 6.44776 15.4299 6.44776 15.011C6.44776 14.592 6.53206 14.2226 6.70315 13.9003C6.87423 13.578 7.10482 13.3277 7.39987 13.1467C7.69245 12.9657 8.02965 12.874 8.41149 12.874C8.79333 12.874 9.13549 12.9657 9.43055 13.1467C9.72312 13.3277 9.95371 13.5805 10.1223 13.9053C10.2909 14.23 10.3727 14.5994 10.3727 15.011C10.3727 15.4225 10.2909 15.7993 10.1248 16.1216Z" fill="#BA9863"/>
<path id="Vector_19" d="M15.6293 12.0742L14.1713 14.5012L12.7109 12.0742H11.5977L13.6854 15.4706V17.9422H14.6573V15.4706L16.745 12.0742H15.6293Z" fill="#BA9863"/>
<path id="Vector_20" d="M20.2067 12.0742H19.2248L16.8867 17.9422H17.9182L18.481 16.4994H21.0125L21.5754 17.9422H22.6068L20.2588 12.0742H20.2067ZM18.8182 15.6367L19.748 13.2567L20.6778 15.6367H18.8182Z" fill="#BA9863"/>
<path id="Vector_21" d="M24.3436 12.0742H23.3691V17.9422H27.0015V17.0547H24.3436V12.0742Z" fill="#BA9863"/>
<path id="Vector_22" d="M33.6606 16.611C33.4895 16.7846 33.2961 16.9209 33.0829 17.0176C32.8672 17.1168 32.6366 17.1639 32.3911 17.1639C32.0167 17.1639 31.682 17.0721 31.3894 16.8862C31.0969 16.7027 30.8663 16.4474 30.7026 16.1226C30.539 15.7979 30.4547 15.426 30.4547 15.0071C30.4547 14.5881 30.5365 14.2187 30.7026 13.8964C30.8663 13.5741 31.0944 13.3213 31.382 13.1378C31.6696 12.9544 31.9994 12.8602 32.3663 12.8602C32.6068 12.8602 32.835 12.9048 33.0531 12.994C33.2713 13.0833 33.4647 13.2097 33.6358 13.3758C33.8069 13.5419 33.9408 13.7303 34.0424 13.941L34.9301 13.5816C34.7912 13.2618 34.5904 12.9841 34.3301 12.7437C34.0697 12.5032 33.7722 12.3148 33.4375 12.1784C33.1027 12.0421 32.7432 11.9727 32.3639 11.9727C31.7985 11.9727 31.3002 12.1016 30.8638 12.3619C30.4274 12.6222 30.0852 12.9792 29.8373 13.4353C29.5893 13.8915 29.4629 14.4146 29.4629 15.0071C29.4629 15.5996 29.5869 16.1226 29.8373 16.5788C30.0852 17.0349 30.4299 17.3919 30.8687 17.6522C31.3076 17.9125 31.8085 18.0415 32.3738 18.0415C32.7606 18.0415 33.1226 17.972 33.4647 17.8307C33.8044 17.6919 34.1044 17.4936 34.3623 17.2407C34.6202 16.9854 34.8185 16.6953 34.9574 16.3656L34.0697 16.0061C33.9681 16.2342 33.8342 16.4375 33.6631 16.611H33.6606Z" fill="#BA9863"/>
<path id="Vector_23" d="M40.0171 12.3658C39.5733 12.1055 39.06 11.9766 38.4798 11.9766C37.8997 11.9766 37.3963 12.1055 36.955 12.3658C36.5136 12.6261 36.1665 12.9831 35.9111 13.4392C35.6557 13.8954 35.5293 14.4185 35.5293 15.011C35.5293 15.6035 35.6557 16.129 35.9111 16.5877C36.1665 17.0463 36.5161 17.4033 36.9624 17.6611C37.4087 17.9189 37.9245 18.0478 38.5046 18.0478C39.0848 18.0478 39.5882 17.9189 40.027 17.6611C40.4659 17.4033 40.8105 17.0463 41.0585 16.5877C41.3064 16.129 41.4304 15.6035 41.4304 15.011C41.4304 14.4185 41.3064 13.8954 41.0585 13.4392C40.8105 12.9831 40.4634 12.6261 40.0196 12.3658H40.0171ZM40.1932 16.1216C40.027 16.4439 39.8014 16.6967 39.5088 16.8802C39.2187 17.0636 38.8815 17.1578 38.5022 17.1578C38.1228 17.1578 37.7732 17.0661 37.4757 16.8802C37.1757 16.6967 36.9426 16.4439 36.7715 16.1216C36.6004 15.7993 36.5161 15.4299 36.5161 15.011C36.5161 14.592 36.6004 14.2226 36.7715 13.9003C36.9426 13.578 37.1732 13.3277 37.4682 13.1467C37.7608 12.9657 38.098 12.874 38.4798 12.874C38.8617 12.874 39.2038 12.9657 39.4989 13.1467C39.7915 13.3277 40.0221 13.5805 40.1907 13.9053C40.3593 14.23 40.4411 14.5994 40.4411 15.011C40.4411 15.4225 40.3593 15.7993 40.1932 16.1216Z" fill="#BA9863"/>
<path id="Vector_24" d="M45.347 14.7913L43.5023 12.0742H42.4609V17.9422H43.4354V13.6261L45.3371 16.4349L47.2488 13.6088V17.9422H48.2207V12.0742H47.1744L45.347 14.7913Z" fill="#BA9863"/>
<path id="Vector_25" d="M52.4969 14.7913L50.6522 12.0742H49.6133V17.9422H50.5852V13.6261L52.4895 16.4349L54.4011 13.6088V17.9422H55.3731V12.0742H54.3243L52.4969 14.7913Z" fill="#BA9863"/>
<path id="Vector_26" d="M57.7356 12.0742H56.7637V17.9422H57.7356V12.0742Z" fill="#BA9863"/>
<path id="Vector_27" d="M61.5087 14.6302L60.7872 14.4542C60.5417 14.3922 60.3459 14.303 60.2045 14.1815C60.0632 14.0625 59.9913 13.8915 59.9913 13.6733C59.9913 13.4056 60.083 13.1948 60.264 13.0436C60.445 12.8924 60.6955 12.818 61.0153 12.818C61.3352 12.818 61.5806 12.8899 61.7864 13.0362C61.9922 13.1824 62.1385 13.3659 62.2228 13.589L63.1625 13.2866C63.0733 13.0362 62.9369 12.8106 62.7509 12.6123C62.5675 12.4139 62.3319 12.2578 62.0517 12.1437C61.7691 12.0297 61.4418 11.9727 61.0674 11.9727C60.4029 11.9727 59.8896 12.1239 59.5326 12.4288C59.1756 12.7337 58.997 13.1601 58.997 13.708C58.997 13.9981 59.059 14.2509 59.1855 14.4617C59.3119 14.6749 59.4855 14.8509 59.7062 14.9897C59.9268 15.1285 60.1748 15.2351 60.4475 15.307L61.169 15.4905C61.4715 15.5698 61.712 15.6789 61.8906 15.8227C62.0691 15.964 62.1583 16.1474 62.1583 16.3705C62.1583 16.616 62.0517 16.8143 61.841 16.9655C61.6277 17.1168 61.3401 17.1911 60.9781 17.1911C60.6657 17.1862 60.4029 17.1044 60.1897 16.9482C59.9764 16.792 59.8351 16.611 59.7632 16.4028L58.8086 16.6953C58.8582 16.8688 58.9474 17.0349 59.0714 17.1936C59.1979 17.3523 59.3566 17.4961 59.55 17.625C59.7434 17.7539 59.9665 17.8555 60.2219 17.9274C60.4773 17.9993 60.7574 18.0365 61.0649 18.0365C61.5186 18.0365 61.903 17.9646 62.2178 17.8183C62.5327 17.6721 62.7732 17.4713 62.9344 17.2134C63.0956 16.9556 63.1774 16.6606 63.1774 16.3259C63.1774 15.9466 63.0311 15.5996 62.741 15.2872C62.4509 14.9748 62.0418 14.7542 61.5162 14.6253L61.5087 14.6302Z" fill="#BA9863"/>
<path id="Vector_28" d="M66.625 14.6302L65.9035 14.4542C65.658 14.3922 65.4622 14.303 65.3208 14.1815C65.1795 14.0625 65.1076 13.8915 65.1076 13.6733C65.1076 13.4056 65.1993 13.1948 65.3803 13.0436C65.5613 12.8924 65.8118 12.818 66.1316 12.818C66.4515 12.818 66.6969 12.8899 66.9027 13.0362C67.1085 13.1824 67.2548 13.3659 67.3391 13.589L68.2788 13.2866C68.1896 13.0362 68.0532 12.8106 67.8672 12.6123C67.6837 12.4139 67.4482 12.2578 67.168 12.1437C66.8854 12.0297 66.5581 11.9727 66.1837 11.9727C65.5192 11.9727 65.0059 12.1239 64.6489 12.4288C64.2918 12.7337 64.1133 13.1601 64.1133 13.708C64.1133 13.9981 64.1753 14.2509 64.3018 14.4617C64.4282 14.6749 64.6018 14.8509 64.8224 14.9897C65.0431 15.1285 65.2911 15.2351 65.5638 15.307L66.2853 15.4905C66.5878 15.5698 66.8283 15.6789 67.0069 15.8227C67.1854 15.964 67.2746 16.1474 67.2746 16.3705C67.2746 16.616 67.168 16.8143 66.9548 16.9655C66.7416 17.1168 66.4539 17.1911 66.0919 17.1911C65.7795 17.1862 65.5167 17.1044 65.3035 16.9482C65.0902 16.792 64.9489 16.611 64.877 16.4028L63.9199 16.6953C63.9695 16.8688 64.0588 17.0349 64.1828 17.1936C64.3092 17.3523 64.4679 17.4961 64.6613 17.625C64.8547 17.7539 65.0778 17.8555 65.3332 17.9274C65.5886 17.9993 65.8688 18.0365 66.1762 18.0365C66.63 18.0365 67.0143 17.9646 67.3292 17.8183C67.6441 17.6721 67.8846 17.4713 68.0457 17.2134C68.2069 16.9556 68.2887 16.6606 68.2887 16.3259C68.2887 15.9466 68.1424 15.5996 67.8523 15.2872C67.5623 14.9748 67.1531 14.7542 66.6275 14.6253V14.6302H66.625Z" fill="#BA9863"/>
<path id="Vector_29" d="M70.3313 12.0742H69.3594V17.9422H70.3313V12.0742Z" fill="#BA9863"/>
<path id="Vector_30" d="M75.8433 12.3658C75.3995 12.1055 74.8862 11.9766 74.306 11.9766C73.7258 11.9766 73.2225 12.1055 72.7812 12.3658C72.3398 12.6261 71.9927 12.9831 71.7373 13.4392C71.4819 13.8954 71.3555 14.4185 71.3555 15.011C71.3555 15.6035 71.4819 16.129 71.7373 16.5877C71.9927 17.0463 72.3423 17.4033 72.7886 17.6611C73.2349 17.9189 73.7506 18.0478 74.3308 18.0478C74.911 18.0478 75.4143 17.9189 75.8532 17.6611C76.2921 17.4033 76.6367 17.0463 76.8847 16.5877C77.1326 16.129 77.2566 15.6035 77.2566 15.011C77.2566 14.4185 77.1326 13.8954 76.8847 13.4392C76.6367 12.9831 76.2896 12.6261 75.8458 12.3658H75.8433ZM76.0193 16.1216C75.8557 16.4439 75.6276 16.6967 75.335 16.8802C75.0449 17.0636 74.7077 17.1578 74.3283 17.1578C73.949 17.1578 73.5994 17.0661 73.3018 16.8802C73.0018 16.6967 72.7688 16.4439 72.5977 16.1216C72.4266 15.7993 72.3423 15.4299 72.3423 15.011C72.3423 14.592 72.4266 14.2226 72.5977 13.9003C72.7688 13.578 72.9994 13.3277 73.2944 13.1467C73.587 12.9657 73.9242 12.874 74.306 12.874C74.6879 12.874 75.03 12.9657 75.3251 13.1467C75.6177 13.3277 75.8482 13.5805 76.0168 13.9053C76.1855 14.23 76.2673 14.5994 76.2673 15.011C76.2673 15.4225 76.1855 15.7993 76.0193 16.1216Z" fill="#BA9863"/>
<path id="Vector_31" d="M82.4149 16.3159L79.2957 12.0742H78.2891V17.9422H79.261V13.6509L82.4149 17.9422H83.3868V12.0742H82.4149V16.3159Z" fill="#BA9863"/>
<path id="Vector_32" d="M86.7988 17.9422H87.7733V15.4954H90.0618V14.6054H87.7733V12.9642H90.4461V12.0742H86.7988V17.9422Z" fill="#BA9863"/>
<path id="Vector_33" d="M95.5308 12.3658C95.087 12.1055 94.5737 11.9766 93.9935 11.9766C93.4133 11.9766 92.91 12.1055 92.4687 12.3658C92.0273 12.6261 91.6802 12.9831 91.4248 13.4392C91.1694 13.8954 91.043 14.4185 91.043 15.011C91.043 15.6035 91.1694 16.129 91.4248 16.5877C91.6802 17.0463 92.0298 17.4033 92.4761 17.6611C92.9224 17.9189 93.4381 18.0478 94.0183 18.0478C94.5985 18.0478 95.1018 17.9189 95.5407 17.6611C95.9796 17.4033 96.3242 17.0463 96.5722 16.5877C96.8201 16.129 96.9441 15.6035 96.9441 15.011C96.9441 14.4185 96.8201 13.8954 96.5722 13.4392C96.3242 12.9831 95.9771 12.6261 95.5333 12.3658H95.5308ZM95.7068 16.1216C95.5432 16.4439 95.3151 16.6967 95.0225 16.8802C94.7324 17.0636 94.3952 17.1578 94.0158 17.1578C93.6365 17.1578 93.2869 17.0661 92.9893 16.8802C92.6893 16.6967 92.4563 16.4439 92.2852 16.1216C92.1141 15.7993 92.0298 15.4299 92.0298 15.011C92.0298 14.592 92.1141 14.2226 92.2852 13.9003C92.4563 13.578 92.6869 13.3277 92.9819 13.1467C93.2745 12.9657 93.6117 12.874 93.9935 12.874C94.3754 12.874 94.7175 12.9657 95.0126 13.1467C95.3052 13.3277 95.5357 13.5805 95.7043 13.9053C95.873 14.23 95.9548 14.5994 95.9548 15.011C95.9548 15.4225 95.873 15.7993 95.7068 16.1216Z" fill="#BA9863"/>
<path id="Vector_34" d="M101.07 15.54C101.388 15.3813 101.638 15.1607 101.822 14.883C102.003 14.6029 102.094 14.2831 102.094 13.9187C102.094 13.5542 102.008 13.2344 101.834 12.9593C101.661 12.6816 101.42 12.4659 101.113 12.3097C100.805 12.1536 100.451 12.0742 100.049 12.0742H97.9785V17.9422H98.9505V15.7804H99.9819L101.232 17.9422H102.33L100.939 15.597C100.984 15.5796 101.028 15.5623 101.07 15.54ZM98.948 12.9642H100.012C100.332 12.9642 100.589 13.0535 100.793 13.232C100.994 13.4104 101.095 13.641 101.095 13.9187C101.095 14.1021 101.048 14.2682 100.956 14.4145C100.865 14.5607 100.743 14.6748 100.597 14.7591C100.448 14.8434 100.279 14.8855 100.089 14.8855H98.948V12.9667V12.9642Z" fill="#BA9863"/>
<path id="Vector_35" d="M108.037 12.0742H107.055L104.717 17.9422H105.748L106.311 16.4994H108.843L109.405 17.9422H110.437L108.089 12.0742H108.037ZM106.648 15.6367L107.578 13.2567L108.505 15.6367H106.648Z" fill="#BA9863"/>
<path id="Vector_36" d="M112.171 12.0742H111.199V17.9422H114.829V17.0547H112.171V12.0742Z" fill="#BA9863"/>
<path id="Vector_37" d="M119.272 15.7992C119.272 16.0744 119.215 16.3124 119.104 16.5157C118.992 16.719 118.831 16.8801 118.623 16.9941C118.412 17.1082 118.171 17.1652 117.896 17.1652C117.621 17.1652 117.39 17.1082 117.185 16.9941C116.979 16.8801 116.818 16.7214 116.704 16.5157C116.59 16.3124 116.532 16.0719 116.532 15.7992V12.0781H115.561V15.7992C115.561 16.2529 115.657 16.6496 115.851 16.9892C116.044 17.3313 116.314 17.5941 116.664 17.7825C117.014 17.9709 117.42 18.0626 117.884 18.0626C118.347 18.0626 118.781 17.9684 119.138 17.7825C119.493 17.5966 119.768 17.3313 119.959 16.9892C120.153 16.6496 120.249 16.2529 120.249 15.7992V12.0781H119.277V15.7992H119.272Z" fill="#BA9863"/>
<path id="Vector_38" d="M122.525 12.0742H121.553V17.9422H125.183V17.0547H122.525V12.0742Z" fill="#BA9863"/>
<path id="Vector_39" d="M128.697 12.0742H127.715L125.377 17.9422H126.408L126.971 16.4994H129.503L130.066 17.9422H131.097L128.749 12.0742H128.697ZM127.308 15.6367L128.238 13.2567L129.166 15.6367H127.308Z" fill="#BA9863"/>
</g>
</svg>
