<svg width="16" height="16" viewBox="0 0 16 16" fill="none" xmlns="http://www.w3.org/2000/svg">
<g id="attachment">
<path id="Vector" fill-rule="evenodd" clip-rule="evenodd" d="M7.46034 2.30296C8.05595 1.68207 8.86377 1.33325 9.7061 1.33325C10.5484 1.33325 11.3562 1.68207 11.9519 2.30296C12.5475 2.92385 12.8821 3.76596 12.8821 4.64403C12.8821 5.52211 12.5475 6.36422 11.9519 6.98511L7.81699 11.2955C7.47445 11.6525 7.00986 11.8532 6.52543 11.8532C6.041 11.8532 5.57641 11.6525 5.23387 11.2955C4.89133 10.9384 4.69889 10.4541 4.69889 9.94909C4.69889 9.4441 4.89133 8.95979 5.23387 8.60271L9.36874 4.29235C9.55506 4.09813 9.85714 4.09813 10.0435 4.29235C10.2298 4.48658 10.2298 4.80148 10.0435 4.99571L5.90859 9.30607C5.74499 9.47661 5.65309 9.70791 5.65309 9.94909C5.65309 10.1903 5.74499 10.4216 5.90859 10.5921C6.07219 10.7626 6.29407 10.8585 6.52543 10.8585C6.75679 10.8585 6.97867 10.7626 7.14227 10.5921L11.2771 6.28175C11.6938 5.8474 11.9279 5.2583 11.9279 4.64403C11.9279 4.02977 11.6938 3.44066 11.2771 3.00631C10.8605 2.57197 10.2954 2.32795 9.7061 2.32795C9.11684 2.32795 8.55172 2.57197 8.13506 3.00631L4.00019 7.31667C3.33045 8.01483 2.9542 8.96174 2.9542 9.94909C2.9542 10.9364 3.33045 11.8833 4.00019 12.5815C4.66992 13.2797 5.57828 13.6719 6.52543 13.6719C7.47258 13.6719 8.38094 13.2797 9.05067 12.5815L13.1855 8.27115C13.3719 8.07692 13.6739 8.07692 13.8603 8.27115C14.0466 8.46537 14.0466 8.78028 13.8603 8.9745L9.72539 13.2849C8.87671 14.1696 7.72565 14.6666 6.52543 14.6666C5.32521 14.6666 4.17415 14.1696 3.32547 13.2849C2.47679 12.4002 2 11.2002 2 9.94909C2 8.69793 2.47679 7.49802 3.32547 6.61332L7.46034 2.30296Z" fill="#212121"/>
</g>
</svg>
