<svg width="20" height="20" viewBox="0 0 20 20" fill="none" xmlns="http://www.w3.org/2000/svg">
<g id="heart-filled">
<path id="Vector" d="M5.81399 2.56122C6.55122 2.43564 7.30723 2.47706 8.02631 2.68246C8.74538 2.88785 9.40919 3.25196 9.9688 3.74797L9.99962 3.77545L10.0279 3.75046C10.562 3.28184 11.1899 2.93248 11.8698 2.72569C12.5496 2.51889 13.2657 2.45942 13.9703 2.55123L14.1752 2.58121C15.0634 2.73454 15.8936 3.12516 16.5779 3.71171C17.2622 4.29827 17.775 5.05892 18.0622 5.91311C18.3494 6.76731 18.4002 7.68325 18.2092 8.56395C18.0182 9.44465 17.5926 10.2573 16.9773 10.9159L16.8274 11.07L16.7874 11.1041L10.5819 17.2493C10.4387 17.3911 10.2489 17.4761 10.0478 17.4886C9.84674 17.5012 9.64791 17.4404 9.48818 17.3176L9.40988 17.2493L3.16851 11.0683C2.50733 10.4251 2.0371 9.61145 1.80992 8.71751C1.58274 7.82358 1.60746 6.88421 1.88136 6.00345C2.15525 5.1227 2.66762 4.33492 3.36173 3.72737C4.05584 3.11982 4.90459 2.71621 5.81399 2.56122Z" fill="#8C8C8C"/>
</g>
</svg>
