<svg width="21" height="20" viewBox="0 0 21 20" fill="none" xmlns="http://www.w3.org/2000/svg">
<g id="plus">
<path id="Vector" d="M11.1452 3.97854C11.1452 3.62222 10.8563 3.33337 10.5 3.33337C10.1437 3.33337 9.85483 3.62222 9.85483 3.97854V9.35488H4.47849C4.12218 9.35488 3.83333 9.64373 3.83333 10C3.83333 10.3564 4.12218 10.6452 4.47849 10.6452H9.85483V16.0215C9.85483 16.3779 10.1437 16.6667 10.5 16.6667C10.8563 16.6667 11.1452 16.3779 11.1452 16.0215V10.6452H16.5215C16.8778 10.6452 17.1667 10.3564 17.1667 10C17.1667 9.64373 16.8778 9.35488 16.5215 9.35488H11.1452V3.97854Z" fill="#AA854B"/>
</g>
</svg>
