<svg width="20" height="32" viewBox="0 0 20 32" fill="none" xmlns="http://www.w3.org/2000/svg">
<g id="Group 2">
<path id="Vector" d="M18.9688 24.8125V24.8199C18.9688 24.8199 18.9737 24.8125 18.9688 24.8125Z" fill="#BA9863"/>
<path id="Vector_2" d="M18.9703 7.2156V7.10156H0V24.7402C0 24.7402 0.00248672 24.7477 0.00744564 24.7477C0.890132 24.7625 2.73733 24.5617 4.15805 24.708C6.08459 24.9039 8.9806 24.8196 10.2674 24.8394C10.9716 24.8493 11.5146 24.4998 12.1543 24.6064C12.8609 24.7254 14.842 24.8121 15.576 24.8146C16.7636 24.8171 18.8389 24.7601 18.9703 24.8097C18.9703 24.77 18.9728 24.6138 18.9728 24.6113V7.2156H18.9703ZM17.1702 17.1766C15.7272 16.6956 12.7767 17.1914 11.0733 18.3145C10.8303 18.4756 10.5848 18.6491 10.3542 18.8227C10.3468 18.8227 10.3468 18.8326 10.3517 18.8375C10.8675 19.2887 11.3906 19.7746 11.8568 20.2184H11.8642L12.3799 20.0572C12.3799 20.0572 12.3948 20.0572 12.3899 20.0672L12.256 20.5952V20.6051C12.6304 20.9621 12.9502 21.267 13.1758 21.4703C13.2205 21.4555 13.2676 21.448 13.3097 21.448C13.6073 21.448 13.8478 21.6885 13.8478 21.986C13.8478 22.2835 13.6073 22.5215 13.3097 22.5215C13.2874 22.5215 13.2626 22.5215 13.2403 22.5215H13.2378C12.9973 22.5215 12.7791 22.4991 12.0229 21.7901C11.8964 21.6662 11.7055 21.4728 11.47 21.2373C11.47 21.2373 11.4675 21.2373 11.4625 21.2373L11.0113 21.3786C11.0113 21.3786 11.0014 21.3736 11.0014 21.3687L11.1204 20.8927V20.8853C10.6939 20.4638 10.1707 19.9556 9.59054 19.4573C9.58806 19.4573 9.58062 19.4573 9.57566 19.4573C9.0525 19.9085 8.57149 20.3671 8.1723 20.7638C8.16982 20.7638 8.16981 20.7638 8.16981 20.7712L8.3037 21.2869C8.3037 21.2869 8.29626 21.3017 8.28882 21.2968L7.80038 21.1406C7.80038 21.1406 7.79293 21.1406 7.79045 21.1456C7.51027 21.4331 7.28961 21.6587 7.1458 21.7976C6.38956 22.5066 6.17136 22.5314 5.93086 22.5314H5.92839C5.9036 22.5314 5.88127 22.5314 5.85648 22.5314C5.62093 22.5314 5.41761 22.3752 5.34323 22.1595C5.28124 21.9637 5.36555 21.7455 5.52424 21.6116C5.72755 21.4381 5.85896 21.4455 5.98541 21.4802C5.98789 21.4802 5.99284 21.4802 5.99284 21.4802C6.25071 21.2522 6.63256 20.8828 7.0739 20.4589C7.07638 20.4589 7.07636 20.4514 7.07636 20.4489L6.9648 20.0201C6.9648 20.0201 6.97223 20.0052 6.97471 20.0101L7.39622 20.144C7.39622 20.144 7.40366 20.144 7.40614 20.1391C7.845 19.7201 8.3285 19.2664 8.80952 18.8475C8.81696 18.8475 8.81696 18.8375 8.80952 18.8326C8.57645 18.659 8.33594 18.483 8.09295 18.3244C6.38461 17.2013 3.43901 16.7055 1.99101 17.1865C1.98357 17.1865 1.97613 17.1865 1.98357 17.1766C2.05547 17.0526 2.56872 16.3684 4.56221 16.3684C5.73995 16.3684 7.41358 16.8617 8.80455 17.6922C8.80703 17.6922 8.81199 17.6922 8.81447 17.6922C8.93844 17.4121 9.28805 14.3801 9.10457 12.2531C9.10457 12.2531 9.09713 12.2432 9.09465 12.2457C8.96076 12.3448 7.70863 13.2745 7.54499 14.4917C7.54251 14.5016 7.53011 14.5016 7.52763 14.4917C7.483 14.1546 7.3268 12.496 8.15742 11.7151C8.16486 11.7077 8.15989 11.6978 8.14997 11.7003C7.92186 11.7474 6.33253 12.1391 5.7325 13.9513C5.73002 13.9587 5.71763 13.9612 5.71515 13.9513C5.64572 13.5174 5.5887 10.902 7.88715 10.483C7.89459 10.483 7.89708 10.4731 7.8946 10.4682C7.77558 10.3913 7.0243 9.96738 6.06228 10.5772C6.05484 10.5772 6.0474 10.5772 6.05236 10.5673C6.17138 10.364 6.96231 9.15424 8.56404 9.73187C8.57148 9.73187 8.57893 9.73187 8.57397 9.72443C8.5343 9.63023 8.3161 9.18647 7.90451 9.12201C7.89707 9.11706 7.89459 9.10714 7.90451 9.10466C8.08551 9.065 8.83183 8.946 9.2211 9.47652C9.22358 9.47652 9.23102 9.47652 9.23598 9.47652L9.56575 8.57414V8.54191V8.55926L9.57566 8.54191V8.57414L9.90543 9.47652C9.90543 9.47652 9.91535 9.48396 9.92031 9.47652C10.3046 8.946 11.0509 9.065 11.2319 9.10466C11.2419 9.10962 11.2394 9.11954 11.2319 9.12201C10.8253 9.18647 10.6071 9.63023 10.5625 9.72443C10.5625 9.72939 10.5699 9.73435 10.5774 9.73187C12.1766 9.15424 12.97 10.364 13.089 10.5673C13.0915 10.5748 13.0816 10.5822 13.0742 10.5772C12.1146 9.96738 11.3658 10.3913 11.2443 10.4682C11.2369 10.4682 11.2419 10.483 11.2468 10.483C13.5453 10.902 13.4858 13.5174 13.4188 13.9513C13.4188 13.9587 13.4039 13.9587 13.4039 13.9513C12.8014 12.1415 11.2146 11.7474 10.9815 11.7003C10.9741 11.7003 10.9716 11.7077 10.979 11.7151C11.8072 12.496 11.6485 14.1546 11.6039 14.4917C11.6039 14.5016 11.589 14.5016 11.589 14.4917C11.4253 13.2745 10.1757 12.3423 10.0393 12.2457C10.0319 12.2457 10.0294 12.2506 10.0244 12.2531C9.85088 14.4818 10.1955 17.4517 10.3195 17.7021C10.3195 17.7096 10.3269 17.7096 10.3294 17.7021C11.7254 16.8667 13.4089 16.3634 14.5941 16.3634C16.5876 16.3634 17.0959 17.0476 17.1727 17.1716C17.1752 17.179 17.1727 17.1865 17.1628 17.1815H17.1702V17.1766Z" fill="#BA9863"/>
<path id="Vector_3" d="M19.0373 0H0.00744563C0.00744563 0 0 0.00495817 0 0.00743725V1.38581C0 1.38581 0.00248672 1.39324 0.00744563 1.39324H16.352C16.352 1.39324 16.3595 1.38829 16.3595 1.38581V0.535482C16.3595 0.535482 16.3619 0.528045 16.3669 0.528045H19.0348C19.0348 0.528045 19.0422 0.528045 19.0422 0.520607V0.00743725C19.0422 0.00743725 19.0398 0 19.0348 0H19.0373Z" fill="#BA9863"/>
<path id="Vector_4" d="M0.00744563 2.33203C0.00744563 2.33203 0 2.33203 0 2.33947V3.71784C0 3.71784 0.00248672 3.72528 0.00744563 3.72528H12.98C12.98 3.72528 12.9874 3.72032 12.9874 3.71784V2.86751C12.9874 2.86751 12.9899 2.86008 12.9948 2.86008H19.0348C19.0348 2.86008 19.0422 2.85512 19.0422 2.85264V2.33947C19.0422 2.33947 19.0398 2.33203 19.0348 2.33203H0.00496376H0.00744563Z" fill="#BA9863"/>
<path id="Vector_5" d="M0.00744564 4.72656C0.00744564 4.72656 0 4.73152 0 4.734V6.11237C0 6.11237 0.00248672 6.11981 0.00744564 6.11981H9.47649C9.47649 6.11981 9.48392 6.11981 9.48392 6.11237V5.26204C9.48392 5.26204 9.48641 5.25461 9.49137 5.25461H19.0323C19.0323 5.25461 19.0397 5.24965 19.0397 5.24717V4.734C19.0397 4.734 19.0373 4.72656 19.0323 4.72656H0.00248188H0.00744564Z" fill="#BA9863"/>
<path id="Vector_6" d="M18.9948 26.3143C18.9948 26.3143 18.9899 25.9846 18.9874 25.9821L15.9823 25.9499C15.9253 25.9424 15.8657 25.9399 15.8087 25.9399H13.9466C13.845 25.9399 13.7458 25.9325 13.6466 25.9176L11.6407 25.6375C11.5341 25.6226 11.425 25.6152 11.3184 25.6177L9.0398 25.6648C8.90839 25.7193 8.79184 25.7689 8.66043 25.8234L8.60837 25.873C8.30588 26.1631 7.02648 26.4705 6.17355 26.6019H0.0294436C0.0294436 26.6019 0.0195312 26.6068 0.0195312 26.6093V26.6663V27.1299C0.0195312 27.1299 0.0220028 27.1373 0.0269618 27.1373H18.9824C18.9824 27.1373 18.9899 27.1324 18.9899 27.1299V26.3118H18.9948V26.3143Z" fill="#BA9863"/>
<path id="Vector_7" d="M15.7198 30.7686C15.6603 30.7611 15.6007 30.7586 15.5412 30.7562L12.1246 30.7388C12.0551 30.771 11.9931 30.7983 11.9237 30.8305L11.5915 31.2247C11.4477 31.2793 11.3311 31.3214 11.1898 31.3759L7.06149 30.7363C7.02926 30.7339 6.99455 30.7289 6.96232 30.7264L1.99348 30.543L1.66372 30.6644C1.08849 30.895 0.575234 31.1008 0 31.3313L0.0297523 31.3214C0.0297523 31.3214 0.0248012 31.3264 0.0223218 31.3288V31.9932C0.0223218 31.9932 0.0247934 32.0007 0.0297523 32.0007H18.9852C18.9852 32.0007 18.9926 31.9957 18.9926 31.9932V31.1751C18.9926 31.1751 18.9877 30.8454 18.9852 30.8429L15.7198 30.7686Z" fill="#BA9863"/>
<path id="Vector_8" d="M0.0214844 29.5721C0.0214844 29.5721 0.023956 29.5795 0.0289149 29.5795H18.9844C18.9844 29.5795 18.9918 29.5746 18.9918 29.5721V28.7565C18.9918 28.7565 18.9893 28.4243 18.9844 28.4243L15.7512 28.454L11.913 28.2706C11.784 28.2582 11.6551 28.2557 11.5286 28.2632L9.35663 28.8705C9.27729 28.8755 9.19794 28.873 9.12108 28.8656L6.05896 28.1367C5.89531 28.1937 5.75646 28.2408 5.59282 28.2979L5.2209 28.6474C5.09445 28.7664 4.94072 28.9523 4.77212 29.0441H0.0313968C0.0313968 29.0441 0.0214844 29.049 0.0214844 29.0515V29.1085V29.5721Z" fill="#BA9863"/>
</g>
</svg>
