<svg width="25" height="24" viewBox="0 0 25 24" fill="none" xmlns="http://www.w3.org/2000/svg">
<g id="column">
<g id="Vector">
<path fill-rule="evenodd" clip-rule="evenodd" d="M4.375 2C3.84457 2 3.33586 2.21071 2.96079 2.58579C2.58571 2.96086 2.375 3.46957 2.375 4V8.57143C2.375 9.10186 2.58571 9.61057 2.96079 9.98564C3.33586 10.3607 3.84457 10.5714 4.375 10.5714H20.375C20.9054 10.5714 21.4141 10.3607 21.7892 9.98564C22.1643 9.61057 22.375 9.10186 22.375 8.57143V4C22.375 3.46957 22.1643 2.96086 21.7892 2.58579C21.4141 2.21071 20.9054 2 20.375 2L4.375 2ZM4.17297 3.79797C4.22655 3.74439 4.29922 3.71429 4.375 3.71429H20.375C20.4508 3.71429 20.5234 3.74439 20.577 3.79797C20.6306 3.85155 20.6607 3.92422 20.6607 4V8.57143C20.6607 8.6472 20.6306 8.71988 20.577 8.77346C20.5234 8.82704 20.4508 8.85714 20.375 8.85714H4.375C4.29922 8.85714 4.22655 8.82704 4.17297 8.77346C4.11939 8.71988 4.08929 8.6472 4.08929 8.57143V4C4.08929 3.92422 4.11939 3.85155 4.17297 3.79797Z" fill="#8C8C8C"/>
<path fill-rule="evenodd" clip-rule="evenodd" d="M2.96079 14.0144C3.33586 13.6393 3.84457 13.4286 4.375 13.4286H20.375C20.9054 13.4286 21.4141 13.6393 21.7892 14.0144C22.1643 14.3894 22.375 14.8981 22.375 15.4286V20C22.375 20.5304 22.1643 21.0391 21.7892 21.4142C21.4141 21.7893 20.9054 22 20.375 22H4.375C3.84457 22 3.33586 21.7893 2.96079 21.4142C2.58571 21.0391 2.375 20.5304 2.375 20V15.4286C2.375 14.8981 2.58571 14.3894 2.96079 14.0144ZM4.375 15.1429C4.29922 15.1429 4.22655 15.173 4.17297 15.2265C4.11939 15.2801 4.08929 15.3528 4.08929 15.4286V20C4.08929 20.0758 4.11939 20.1485 4.17297 20.202C4.22655 20.2556 4.29922 20.2857 4.375 20.2857H20.375C20.4508 20.2857 20.5234 20.2556 20.577 20.202C20.6306 20.1485 20.6607 20.0758 20.6607 20V15.4286C20.6607 15.3528 20.6306 15.2801 20.577 15.2265C20.5234 15.173 20.4508 15.1429 20.375 15.1429H4.375Z" fill="#8C8C8C"/>
</g>
</g>
</svg>
