<svg width="25" height="24" viewBox="0 0 25 24" fill="none" xmlns="http://www.w3.org/2000/svg">
<g id="request">
<g id="Vector">
<path d="M9.00403 12C9.00403 11.5752 9.35065 11.2308 9.77823 11.2308H15.9718C16.3993 11.2308 16.746 11.5752 16.746 12C16.746 12.4248 16.3993 12.7692 15.9718 12.7692H9.77823C9.35065 12.7692 9.00403 12.4248 9.00403 12Z" fill="#8C8C8C"/>
<path d="M9.77823 15.3333C9.35065 15.3333 9.00403 15.6777 9.00403 16.1026C9.00403 16.5274 9.35065 16.8718 9.77823 16.8718H15.9718C16.3993 16.8718 16.746 16.5274 16.746 16.1026C16.746 15.6777 16.3993 15.3333 15.9718 15.3333H9.77823Z" fill="#8C8C8C"/>
<path fill-rule="evenodd" clip-rule="evenodd" d="M9.11164 4.05128C9.24261 3.59226 9.48989 3.16947 9.83547 2.82611C10.3678 2.29716 11.0899 2 11.8427 2H13.9073C14.6601 2 15.3822 2.29716 15.9145 2.82611C16.2601 3.16947 16.5074 3.59226 16.6384 4.05128H18.0363C18.7892 4.05128 19.5112 4.34844 20.0436 4.87739C20.5759 5.40634 20.875 6.12375 20.875 6.8718V19.1795C20.875 19.9275 20.5759 20.6449 20.0436 21.1739C19.5112 21.7028 18.7892 22 18.0363 22H7.71371C6.96084 22 6.2388 21.7028 5.70644 21.1739C5.17408 20.6449 4.875 19.9275 4.875 19.1795V6.8718C4.875 6.12375 5.17408 5.40634 5.70644 4.87739C6.2388 4.34844 6.96084 4.05128 7.71371 4.05128H9.11164ZM10.9303 3.91397C11.1723 3.67353 11.5005 3.53846 11.8427 3.53846H13.9073C14.2495 3.53846 14.5777 3.67353 14.8197 3.91397C15.0616 4.1544 15.1976 4.48049 15.1976 4.82051C15.1976 5.16053 15.0616 5.48663 14.8197 5.72706C14.5777 5.96749 14.2495 6.10256 13.9073 6.10256H11.8427C11.5005 6.10256 11.1723 5.96749 10.9303 5.72706C10.6884 5.48663 10.5524 5.16053 10.5524 4.82051C10.5524 4.48049 10.6884 4.1544 10.9303 3.91397ZM16.6384 5.58974H18.0363C18.3785 5.58974 18.7067 5.72482 18.9487 5.96525C19.1907 6.20568 19.3266 6.53177 19.3266 6.8718V19.1795C19.3266 19.5195 19.1907 19.8456 18.9487 20.086C18.7067 20.3265 18.3785 20.4615 18.0363 20.4615H7.71371C7.3715 20.4615 7.0433 20.3265 6.80131 20.086C6.55933 19.8456 6.42339 19.5195 6.42339 19.1795V6.8718C6.42339 6.53177 6.55933 6.20568 6.80131 5.96525C7.0433 5.72482 7.37149 5.58974 7.71371 5.58974H9.11164C9.24261 6.04877 9.48989 6.47155 9.83547 6.81492C10.3678 7.34387 11.0899 7.64103 11.8427 7.64103H13.9073C14.6601 7.64103 15.3822 7.34387 15.9145 6.81492C16.2601 6.47155 16.5074 6.04877 16.6384 5.58974Z" fill="#8C8C8C"/>
</g>
</g>
</svg>
