<svg width="25" height="24" viewBox="0 0 25 24" fill="none" xmlns="http://www.w3.org/2000/svg">
<g id="external-link">
<g id="Vector">
<path d="M19.6985 3.71429L10.8761 12.5368C10.5413 12.8715 10.5413 13.4142 10.8761 13.7489C11.2108 14.0837 11.7535 14.0837 12.0882 13.7489L20.9107 4.92647V8.57143C20.9107 9.04482 21.2945 9.42857 21.7679 9.42857C22.2412 9.42857 22.625 9.04482 22.625 8.57143V2.85714C22.625 2.63778 22.5413 2.41842 22.374 2.25105C22.2918 2.16887 22.1971 2.10687 22.096 2.06504C21.9949 2.02313 21.8841 2 21.7679 2H16.0536C15.5802 2 15.1964 2.38376 15.1964 2.85714C15.1964 3.33053 15.5802 3.71429 16.0536 3.71429H19.6985Z" fill="#AA854B"/>
<path d="M3.54552 5.20624C4.13492 4.61684 4.93432 4.28571 5.76786 4.28571H12.625C13.0984 4.28571 13.4821 4.66947 13.4821 5.14286C13.4821 5.61624 13.0984 6 12.625 6H5.76786C5.38898 6 5.02561 6.15051 4.7577 6.41842C4.4898 6.68633 4.33929 7.04969 4.33929 7.42857V18.8571C4.33929 19.236 4.4898 19.5994 4.7577 19.8673C5.02561 20.1352 5.38898 20.2857 5.76786 20.2857H17.1964C17.5753 20.2857 17.9387 20.1352 18.2066 19.8673C18.4745 19.5994 18.625 19.236 18.625 18.8571V12C18.625 11.5266 19.0088 11.1429 19.4821 11.1429C19.9555 11.1429 20.3393 11.5266 20.3393 12V18.8571C20.3393 19.6907 20.0082 20.4901 19.4188 21.0795C18.8294 21.6689 18.03 22 17.1964 22H5.76786C4.93432 22 4.13492 21.6689 3.54552 21.0795C2.95612 20.4901 2.625 19.6907 2.625 18.8571V7.42857C2.625 6.59503 2.95612 5.79564 3.54552 5.20624Z" fill="#AA854B"/>
</g>
</g>
</svg>
