<svg width="25" height="24" viewBox="0 0 25 24" fill="none" xmlns="http://www.w3.org/2000/svg">
<g id="upload">
<g id="Vector">
<path d="M12.7953 3.05845C12.8863 3.09604 12.9715 3.15176 13.0455 3.22561L18.1883 8.36074C18.4896 8.66155 18.4896 9.14926 18.1883 9.45007C17.8871 9.75088 17.3986 9.75088 17.0974 9.45007L13.2714 5.62987V16.0946C13.2714 16.52 12.926 16.8649 12.5 16.8649C12.074 16.8649 11.7286 16.52 11.7286 16.0946V5.62987L7.90263 9.45007C7.60136 9.75088 7.11292 9.75088 6.81166 9.45007C6.5104 9.14926 6.5104 8.66155 6.81166 8.36074L11.9545 3.22561C12.1051 3.0752 12.3026 3 12.5 3C12.6046 3 12.7043 3.02079 12.7953 3.05845Z" fill="#212121"/>
<path d="M4.27143 16.3514C4.69748 16.3514 5.04286 16.6962 5.04286 17.1216V19.1757C5.04286 19.5162 5.17832 19.8427 5.41943 20.0834C5.66055 20.3242 5.98758 20.4595 6.32857 20.4595H18.6714C19.0124 20.4595 19.3394 20.3242 19.5806 20.0834C19.8217 19.8427 19.9571 19.5162 19.9571 19.1757V17.1216C19.9571 16.6962 20.3025 16.3514 20.7286 16.3514C21.1546 16.3514 21.5 16.6962 21.5 17.1216V19.1757C21.5 19.9247 21.202 20.6431 20.6715 21.1728C20.1411 21.7024 19.4216 22 18.6714 22H6.32857C5.57839 22 4.85893 21.7024 4.32847 21.1728C3.79801 20.6431 3.5 19.9247 3.5 19.1757V17.1216C3.5 16.6962 3.84538 16.3514 4.27143 16.3514Z" fill="#212121"/>
</g>
</g>
</svg>
