<svg width="28" height="26"
    viewBox="0 0 28 26"
    xmlns="http://www.w3.org/2000/svg">
    <path id="Vector"
        fill-rule="evenodd"
        clip-rule="evenodd"
        d="M14.0003 0.666626C14.3549 0.666626 14.6787 0.866983 14.8356 1.18345L18.4514 8.47608L26.5358 9.64233C26.8868 9.69297 27.1785 9.9377 27.2881 10.2735C27.3977 10.6094 27.3061 10.978 27.0519 11.2243L21.1935 16.9005L22.5748 24.9161C22.6348 25.264 22.491 25.6157 22.2039 25.8231C21.9169 26.0305 21.5364 26.0576 21.2226 25.893L14.0085 22.1091L6.77732 25.8934C6.46349 26.0577 6.08321 26.0303 5.79637 25.8229C5.50953 25.6154 5.36588 25.2639 5.42582 24.9161L6.80719 16.9005L0.94877 11.2243C0.694582 10.978 0.602999 10.6094 0.712561 10.2735C0.822123 9.9377 1.11381 9.69297 1.46487 9.64233L9.5493 8.47608L13.1651 1.18345C13.322 0.866983 13.6458 0.666626 14.0003 0.666626ZM14.0003 3.68873L11.003 9.73401C10.8673 10.0078 10.6049 10.1975 10.3013 10.2413L3.60238 11.2076L8.45778 15.9121C8.67763 16.1251 8.778 16.4322 8.72612 16.7332L7.581 23.3779L13.5756 20.2407C13.8472 20.0986 14.1717 20.0987 14.4433 20.2411L20.4193 23.3757L19.2745 16.7332C19.2227 16.4322 19.323 16.1251 19.5429 15.9121L24.3983 11.2076L17.6993 10.2413C17.3958 10.1975 17.1334 10.0078 16.9976 9.73401L14.0003 3.68873Z"
        fill="#AA854B"/>
</svg>
