<svg width="25" height="24" viewBox="0 0 25 24" fill="none" xmlns="http://www.w3.org/2000/svg">
<g id="Microsoft_Office_Outlook_(2018&#226;&#128;&#147;present) 1" clip-path="url(#clip0_5326_31307)">
<g id="Group 4">
<path id="Vector" d="M24.4997 12.5559C24.501 12.3693 24.404 12.1956 24.2441 12.098H24.2413L24.2312 12.0925L15.915 7.1974C15.879 7.17327 15.8418 7.15122 15.8033 7.13136C15.4822 6.96663 15.1008 6.96663 14.7797 7.13136C14.7412 7.15123 14.704 7.17327 14.6681 7.1974L6.35181 12.0925L6.34177 12.098C6.0876 12.2552 6.00968 12.5875 6.16774 12.8403C6.21431 12.9147 6.27845 12.9768 6.3546 13.021L14.6709 17.9161C14.7069 17.94 14.7442 17.9621 14.7825 17.9822C15.1036 18.1469 15.485 18.1469 15.8061 17.9822C15.8445 17.9621 15.8817 17.94 15.9178 17.9161L24.234 13.021C24.4002 12.9247 24.5016 12.7472 24.4997 12.5559Z" fill="#0A2767"/>
<path id="Vector_2" d="M7.31949 9.28504H12.777V14.2595H7.31949V9.28504ZM23.3816 4.22843V1.95293C23.3947 1.384 22.9419 0.91207 22.3697 0.898438H8.2075C7.63536 0.91207 7.18248 1.384 7.19559 1.95293V4.22843L15.5677 6.44843L23.3816 4.22843Z" fill="#0364B8"/>
<path id="Vector_3" d="M7.19531 4.22656H12.7767V9.22156H7.19531V4.22656Z" fill="#0078D4"/>
<path id="Vector_4" d="M18.3626 4.22656H12.7812V9.22156L18.3626 14.2166H23.3859V9.22156L18.3626 4.22656Z" fill="#28A8EA"/>
<path id="Vector_5" d="M12.7812 9.22266H18.3626V14.2177H12.7812V9.22266Z" fill="#0078D4"/>
<path id="Vector_6" d="M12.7812 14.2188H18.3626V19.2137H12.7812V14.2188Z" fill="#0364B8"/>
<path id="Vector_7" d="M7.32031 14.2578H12.7778V18.7799H7.32031V14.2578Z" fill="#14447D"/>
<path id="Vector_8" d="M18.3594 14.2188H23.3826V19.2137H18.3594V14.2188Z" fill="#0078D4"/>
<path id="Vector_9" d="M24.245 12.9893L24.2344 12.9948L15.9181 17.6457C15.8818 17.6679 15.845 17.689 15.8065 17.7079C15.6652 17.7747 15.5118 17.8125 15.3555 17.8189L14.9012 17.5547C14.8628 17.5355 14.8255 17.5142 14.7896 17.4908L6.36166 12.7079H6.35775L6.08203 12.5547V21.9697C6.08633 22.5979 6.60176 23.1037 7.23347 23.0997H23.367C23.3765 23.0997 23.3849 23.0952 23.3949 23.0952C23.5284 23.0868 23.6599 23.0595 23.7856 23.0142C23.84 22.9913 23.8924 22.9642 23.9425 22.9332C23.9799 22.9121 24.0441 22.866 24.0441 22.866C24.33 22.6557 24.4992 22.3234 24.5006 21.9697V12.5547C24.5004 12.7348 24.4027 12.9008 24.245 12.9893Z" fill="url(#paint0_linear_5326_31307)"/>
<path id="Vector_10" opacity="0.5" d="M24.0537 12.5161V13.0933L15.3579 19.0468L6.35506 12.7104C6.35506 12.7073 6.35256 12.7048 6.34948 12.7048L5.52344 12.2109V11.7946L5.8639 11.7891L6.5839 12.1998L6.60064 12.2053L6.66203 12.2442C6.66203 12.2442 15.1234 17.0449 15.1457 17.056L15.4695 17.2447C15.4974 17.2336 15.5253 17.2225 15.5588 17.2114C15.5755 17.2003 23.9588 12.5106 23.9588 12.5106L24.0537 12.5161Z" fill="#0A2767"/>
<path id="Vector_11" d="M24.245 12.9893L24.2344 12.9954L15.9181 17.6462C15.8818 17.6684 15.845 17.6895 15.8065 17.7084C15.4835 17.8653 15.1058 17.8653 14.7828 17.7084C14.7446 17.6896 14.7073 17.6688 14.6712 17.6462L6.35496 12.9954L6.34492 12.9893C6.18436 12.9027 6.0837 12.7363 6.08203 12.5547V21.9697C6.08603 22.5978 6.60128 23.1036 7.23286 23.0997C7.23286 23.0997 7.23289 23.0997 7.23292 23.0997H23.3497C23.9813 23.1037 24.4966 22.5978 24.5006 21.9698C24.5006 21.9698 24.5006 21.9697 24.5006 21.9697V12.5547C24.5004 12.7348 24.4027 12.9008 24.245 12.9893Z" fill="#1490DF"/>
<path id="Vector_12" opacity="0.1" d="M16.0381 17.5781L15.9136 17.6475C15.8775 17.6703 15.8403 17.6913 15.802 17.7102C15.6648 17.7771 15.5157 17.8164 15.3633 17.8257L18.5274 21.5464L24.0468 22.8689C24.1981 22.7553 24.3184 22.606 24.3968 22.4344L16.0381 17.5781Z" fill="black"/>
<path id="Vector_13" opacity="0.05" d="M16.6018 17.2578L15.9136 17.6424C15.8775 17.6653 15.8403 17.6862 15.802 17.7051C15.6648 17.7721 15.5157 17.8113 15.3633 17.8206L16.8457 21.8848L24.0485 22.8622C24.3322 22.6503 24.4993 22.3181 24.4995 21.9653V21.8438L16.6018 17.2578Z" fill="black"/>
<path id="Vector_14" d="M7.24854 23.0997H23.3481C23.5958 23.1009 23.8374 23.0231 24.0374 22.8777L14.9006 17.5558C14.8622 17.5366 14.825 17.5153 14.789 17.492L6.36109 12.709H6.35719L6.08203 12.5547V21.9375C6.0814 22.5787 6.60366 23.0991 7.24854 23.0997Z" fill="#28A8EA"/>
<path id="Vector_15" opacity="0.1" d="M13.896 6.35325V18.1914C13.895 18.6065 13.6412 18.9795 13.2541 19.1349C13.1342 19.1861 13.0051 19.2126 12.8746 19.2126H6.08203V5.89093H7.19831V5.33594H12.8746C13.4384 5.33806 13.8948 5.79256 13.896 6.35325Z" fill="black"/>
<path id="Vector_16" opacity="0.2" d="M13.3378 6.91189V18.75C13.3393 18.8841 13.3107 19.0168 13.2541 19.1385C13.0991 19.5184 12.7288 19.7677 12.3164 19.7695H6.08203V5.89458H12.3164C12.4784 5.89296 12.638 5.93313 12.7797 6.01113C13.1218 6.18253 13.3377 6.53094 13.3378 6.91189Z" fill="black"/>
<path id="Vector_17" opacity="0.2" d="M13.3378 6.91189V17.64C13.3351 18.2005 12.88 18.6547 12.3165 18.6596H6.08203V5.89458H12.3164C12.4784 5.89296 12.638 5.93313 12.7797 6.01113C13.1218 6.18253 13.3377 6.53094 13.3378 6.91189Z" fill="black"/>
<path id="Vector_18" opacity="0.2" d="M12.7797 6.91184V17.64C12.7791 18.2013 12.3228 18.6568 11.7583 18.6595H6.08203V5.89453H11.7583C12.3227 5.89483 12.78 6.35006 12.7797 6.91129C12.7797 6.91148 12.7797 6.91166 12.7797 6.91184Z" fill="black"/>
<path id="Vector_19" d="M1.52307 5.89453H11.756C12.321 5.89453 12.7791 6.35 12.7791 6.91184V17.0872C12.7791 17.6491 12.321 18.1045 11.756 18.1045H1.52307C0.958037 18.1045 0.5 17.649 0.5 17.0872V6.91184C0.5 6.35 0.95805 5.89453 1.52307 5.89453Z" fill="url(#paint1_linear_5326_31307)"/>
<path id="Vector_20" d="M3.69828 10.1621C3.95043 9.62789 4.35743 9.18084 4.86703 8.87839C5.43138 8.55711 6.07393 8.39694 6.72396 8.41551C7.32643 8.40252 7.92091 8.55438 8.44247 8.85451C8.93286 9.14531 9.32781 9.57139 9.5794 10.0811C9.85339 10.6427 9.98993 11.2607 9.97792 11.8848C9.99119 12.537 9.8507 13.1833 9.56768 13.7718C9.3101 14.2997 8.90262 14.741 8.39559 15.0411C7.85392 15.3504 7.23736 15.5063 6.61289 15.4917C5.99756 15.5065 5.38997 15.3529 4.85643 15.0477C4.3618 14.7566 3.96189 14.33 3.70443 13.819C3.42881 13.2655 3.29064 12.6544 3.30145 12.0369C3.28997 11.3902 3.42563 10.7493 3.69828 10.1621ZM4.94405 13.1757C5.07849 13.5135 5.30647 13.8064 5.60153 14.0205C5.90208 14.2293 6.26195 14.3371 6.6285 14.3279C7.01887 14.3433 7.40365 14.2318 7.72469 14.0105C8.01602 13.797 8.23802 13.5033 8.3632 13.1657C8.50314 12.7887 8.57221 12.3893 8.56692 11.9875C8.57125 11.5818 8.50633 11.1783 8.37492 10.7942C8.25886 10.4475 8.04402 10.1417 7.75651 9.91401C7.44351 9.68215 7.05976 9.56455 6.6698 9.58101C6.29531 9.57137 5.92737 9.67997 5.61883 9.89125C5.31878 10.1063 5.08647 10.4017 4.94907 10.7432C4.64426 11.5258 4.64268 12.3931 4.9446 13.1768L4.94405 13.1757Z" fill="white"/>
<path id="Vector_21" d="M18.3594 4.22656H23.3826V9.22156H18.3594V4.22656Z" fill="#50D9FF"/>
</g>
</g>
<defs>
<linearGradient id="paint0_linear_5326_31307" x1="15.2913" y1="12.5547" x2="15.2913" y2="23.0997" gradientUnits="userSpaceOnUse">
<stop stop-color="#35B8F1"/>
<stop offset="1" stop-color="#28A8EA"/>
</linearGradient>
<linearGradient id="paint1_linear_5326_31307" x1="2.63312" y1="5.09962" x2="10.5783" y2="18.9382" gradientUnits="userSpaceOnUse">
<stop stop-color="#1784D9"/>
<stop offset="0.5" stop-color="#107AD5"/>
<stop offset="1" stop-color="#0A63C9"/>
</linearGradient>
<clipPath id="clip0_5326_31307">
<rect width="24" height="24" fill="white" transform="translate(0.5)"/>
</clipPath>
</defs>
</svg>
