<svg width="16" height="16" viewBox="0 0 16 16" fill="none" xmlns="http://www.w3.org/2000/svg">
<g id="mention">
<path id="Vector" fill-rule="evenodd" clip-rule="evenodd" d="M9.93057 1.61893C8.55944 1.20408 7.09115 1.24191 5.7432 1.72683C4.39526 2.21175 3.23936 3.11795 2.44674 4.31121C1.65412 5.50446 1.26693 6.92129 1.34255 8.35181C1.41816 9.78233 1.95255 11.1504 2.86655 12.2535C3.78055 13.3565 5.02554 14.1358 6.4171 14.476C7.80865 14.8161 9.27275 14.6989 10.5925 14.1418C10.8534 14.0317 10.9757 13.7309 10.8655 13.4699C10.7554 13.209 10.4546 13.0868 10.1936 13.1969C9.07693 13.6683 7.83808 13.7674 6.66061 13.4796C5.48314 13.1919 4.42968 12.5324 3.6563 11.5991C2.88292 10.6658 2.43074 9.50811 2.36676 8.29767C2.30278 7.08723 2.63039 5.88838 3.30107 4.8787C3.97175 3.86902 4.94982 3.10223 6.09039 2.69192C7.23096 2.2816 8.47336 2.24959 9.63355 2.60062C10.7937 2.95165 11.81 3.66705 12.5318 4.64085C13.2536 5.61465 13.6425 6.7957 13.6409 8.00782V9.03347C13.6409 9.35082 13.5149 9.65517 13.2905 9.87958C13.0661 10.104 12.7617 10.23 12.4444 10.23C12.127 10.23 11.8226 10.104 11.5982 9.87958C11.3738 9.65517 11.2478 9.35082 11.2478 9.03347L11.2478 8.00793C11.2478 7.14654 10.9056 6.32044 10.2965 5.71134C9.68741 5.10225 8.8613 4.76007 7.99992 4.76007C7.13853 4.76007 6.31242 5.10225 5.70333 5.71134C5.09424 6.32044 4.75205 7.14654 4.75205 8.00793C4.75205 8.86932 5.09424 9.69542 5.70333 10.3045C6.31242 10.9136 7.13853 11.2558 7.99992 11.2558C8.8613 11.2558 9.68741 10.9136 10.2965 10.3045C10.3646 10.2364 10.4293 10.1656 10.4906 10.0924C10.5918 10.2791 10.7201 10.4519 10.873 10.6048C11.2898 11.0216 11.855 11.2557 12.4444 11.2557C13.0337 11.2557 13.599 11.0216 14.0157 10.6048C14.4325 10.1881 14.6666 9.62284 14.6666 9.03347V8.00848C14.6684 6.57597 14.2088 5.18096 13.3558 4.03011C12.5027 2.87926 11.3017 2.03378 9.93057 1.61893ZM10.2221 8.00656L10.2221 8.00782V8.01088C10.2214 8.59919 9.98732 9.16323 9.57127 9.57928C9.15452 9.99603 8.58929 10.2302 7.99992 10.2302C7.41055 10.2302 6.84532 9.99603 6.42857 9.57928C6.01182 9.16253 5.7777 8.5973 5.7777 8.00793C5.7777 7.41856 6.01182 6.85333 6.42857 6.43658C6.84532 6.01983 7.41055 5.78571 7.99992 5.78571C8.58929 5.78571 9.15452 6.01983 9.57127 6.43658C9.98769 6.85301 10.2218 7.41768 10.2221 8.00656Z" fill="#212121"/>
</g>
</svg>
