<svg width="24" height="24" viewBox="0 0 24 24" fill="none" xmlns="http://www.w3.org/2000/svg">
<g id="close">
<path id="Vector" d="M18.7722 6.32775C19.0759 6.02401 19.0759 5.53155 18.7722 5.22781C18.4685 4.92406 17.976 4.92406 17.6723 5.22781L12 10.9001L6.32775 5.22781C6.02401 4.92406 5.53155 4.92406 5.22781 5.22781C4.92406 5.53155 4.92406 6.02401 5.22781 6.32775L10.9001 12L5.22781 17.6723C4.92406 17.976 4.92406 18.4685 5.22781 18.7722C5.53155 19.0759 6.02401 19.0759 6.32775 18.7722L12 13.0999L17.6723 18.7722C17.976 19.0759 18.4685 19.0759 18.7722 18.7722C19.0759 18.4685 19.0759 17.976 18.7722 17.6723L13.0999 12L18.7722 6.32775Z" fill="#212121"/>
</g>
</svg>
