<svg width="20" height="20" viewBox="0 0 20 20" fill="none" xmlns="http://www.w3.org/2000/svg">
<g id="notification">
<path id="Vector" fill-rule="evenodd" clip-rule="evenodd" d="M6.96439 14.6688H3.52394C3.24821 14.6688 3.00709 14.4824 2.93684 14.215C2.86659 13.9475 2.98484 13.6662 3.22477 13.5299C3.5832 13.3263 3.88896 13.0412 4.11744 12.6974C4.3395 12.3633 4.48253 11.9829 4.53584 11.5853V9.18801C4.53584 9.17849 4.53606 9.16897 4.53651 9.15946C4.58989 8.01874 4.95174 6.9141 5.58328 5.96392C6.14976 5.11164 6.91405 4.41246 7.80831 3.92514C7.88758 3.47819 8.10153 3.06271 8.42594 2.73732C8.84343 2.31856 9.40966 2.08331 10.0001 2.08331C10.5905 2.08331 11.1567 2.31856 11.5742 2.73732C11.8986 3.06271 12.1126 3.4782 12.1919 3.92515C13.0861 4.41246 13.8504 5.11164 14.4169 5.96392C15.0484 6.9141 15.4103 8.01874 15.4637 9.15946C15.4641 9.16897 15.4643 9.17849 15.4643 9.18801V11.5853C15.5176 11.9829 15.6607 12.3633 15.8827 12.6974C16.1112 13.0412 16.417 13.3263 16.7754 13.5299C17.0153 13.6662 17.1336 13.9475 17.0633 14.215C16.9931 14.4824 16.752 14.6688 16.4762 14.6688H13.0358V14.8718C13.0358 15.6793 12.7159 16.4538 12.1466 17.0248C11.5773 17.5958 10.8052 17.9166 10.0001 17.9166C9.19497 17.9166 8.42283 17.5958 7.85352 17.0248C7.28422 16.4538 6.96439 15.6793 6.96439 14.8718V14.6688ZM9.28456 3.59854C9.47433 3.40819 9.73171 3.30126 10.0001 3.30126C10.2685 3.30126 10.5258 3.40819 10.7156 3.59854C10.9054 3.78888 11.012 4.04704 11.012 4.31622C11.012 4.55171 11.1473 4.76609 11.3596 4.86675C12.1896 5.26043 12.8972 5.87324 13.4065 6.63952C13.9133 7.40194 14.2047 8.28768 14.25 9.2027V11.6239C14.25 11.6484 14.2515 11.6728 14.2544 11.6971C14.3268 12.2965 14.5385 12.8706 14.8724 13.373C14.8898 13.3992 14.9075 13.4251 14.9255 13.4508H5.07467C5.09267 13.4251 5.11038 13.3992 5.12778 13.373C5.46171 12.8706 5.67337 12.2965 5.74572 11.6971C5.74865 11.6728 5.75011 11.6484 5.75011 11.6239V9.2027C5.79543 8.28768 6.08687 7.40194 6.59362 6.63952C7.10293 5.87324 7.81053 5.26043 8.64058 4.86675C8.85283 4.76609 8.98818 4.55171 8.98818 4.31622C8.98818 4.04704 9.0948 3.78888 9.28456 3.59854ZM11.8215 14.6688V14.8718C11.8215 15.3563 11.6296 15.821 11.288 16.1636C10.9464 16.5062 10.4832 16.6987 10.0001 16.6987C9.51701 16.6987 9.05373 16.5062 8.71215 16.1636C8.37057 15.821 8.17867 15.3563 8.17867 14.8718V14.6688H11.8215Z" fill="white"/>
</g>
</svg>
