<svg width="24" height="24" viewBox="0 0 24 24" fill="none" xmlns="http://www.w3.org/2000/svg">
<g id="email">
<path id="Vector" fill-rule="evenodd" clip-rule="evenodd" d="M21.9998 6.85406V17.1613C21.9998 17.9142 21.7027 18.6362 21.1737 19.1686C20.6448 19.7009 19.9274 20 19.1793 20H4.82049C4.07245 20 3.35505 19.7009 2.8261 19.1686C2.29716 18.6362 2 17.9142 2 17.1613V6.83871C2 6.83857 2 6.83885 2 6.83871C2.00011 6.08598 2.29725 5.3637 2.8261 4.83144C3.35505 4.29908 4.07245 4 4.82049 4H19.1793C19.9274 4 20.6448 4.29908 21.1737 4.83144C21.6981 5.35918 21.9947 6.07331 21.9998 6.81911C22.0001 6.83077 22.0001 6.84242 21.9998 6.85406ZM3.91395 5.92631C4.15438 5.68433 4.48047 5.54839 4.82049 5.54839H19.1793C19.5194 5.54839 19.8455 5.68433 20.0859 5.92631C20.2358 6.07719 20.3447 6.26158 20.4055 6.46199L12 12.1019L3.59433 6.4619C3.65513 6.26152 3.76407 6.07717 3.91395 5.92631ZM3.53845 8.28533L11.5733 13.6765C11.8317 13.8499 12.1683 13.8499 12.4267 13.6765L20.4614 8.28544V17.1613C20.4614 17.5035 20.3263 17.8317 20.0859 18.0737C19.8455 18.3157 19.5194 18.4516 19.1793 18.4516H4.82049C4.48047 18.4516 4.15438 18.3157 3.91395 18.0737C3.67352 17.8317 3.53845 17.5035 3.53845 17.1613V8.28533Z" fill="#212121"/>
</g>
</svg>
