<svg width="24" height="24" viewBox="0 0 24 24" fill="none" xmlns="http://www.w3.org/2000/svg">
<g id="filter">
<path id="Vector" fill-rule="evenodd" clip-rule="evenodd" d="M3 3.77027C3 3.34486 3.34538 3 3.77143 3H20.2286C20.6546 3 21 3.34486 21 3.77027V6.00097C20.9998 6.74993 20.7018 7.46832 20.1713 7.99785L15.8571 12.3055V19.1757C15.8571 19.5072 15.6447 19.8016 15.3297 19.9064L9.15823 21.9605C8.92299 22.0388 8.66439 21.9994 8.46322 21.8546C8.26206 21.7098 8.14286 21.4773 8.14286 21.2297V12.7978L3.73547 7.95695C3.26232 7.43717 3.00008 6.75995 3 6.05754V3.77027ZM4.54286 4.54054V6.05738C4.54291 6.3766 4.66207 6.68443 4.8771 6.92067L9.4851 11.9819C9.61419 12.1236 9.68571 12.3084 9.68571 12.5V20.161L14.3143 18.6205V11.9865C14.3143 11.7822 14.3956 11.5863 14.5402 11.4418L19.0803 6.90852C19.3214 6.66786 19.457 6.34136 19.4571 6.00097V4.54054H4.54286Z" fill="#212121"/>
</g>
</svg>
