<svg width="24" height="24" viewBox="0 0 24 24" fill="none" xmlns="http://www.w3.org/2000/svg">
<g id="calendar">
<path id="Vector" fill-rule="evenodd" clip-rule="evenodd" d="M16.8857 2.76923C16.8857 2.3444 16.5403 2 16.1143 2C15.6882 2 15.3429 2.3444 15.3429 2.76923V4.05128H8.65714V2.76923C8.65714 2.3444 8.31176 2 7.88571 2C7.45967 2 7.11429 2.3444 7.11429 2.76923V4.05128H5.82857C5.07839 4.05128 4.35893 4.34844 3.82847 4.87739C3.29801 5.40634 3 6.12375 3 6.8718V19.1795C3 19.9275 3.29801 20.6449 3.82847 21.1739C4.35893 21.7028 5.07839 22 5.82857 22H18.1714C18.9216 22 19.6411 21.7028 20.1715 21.1739C20.702 20.6449 21 19.9275 21 19.1795V6.8718C21 6.12375 20.702 5.40634 20.1715 4.87739C19.6411 4.34844 18.9216 4.05128 18.1714 4.05128H16.8857V2.76923ZM19.4571 10.2051V6.8718C19.4571 6.53177 19.3217 6.20568 19.0806 5.96525C18.8394 5.72482 18.5124 5.58974 18.1714 5.58974H16.8857V6.8718C16.8857 7.29663 16.5403 7.64103 16.1143 7.64103C15.6882 7.64103 15.3429 7.29663 15.3429 6.8718V5.58974H8.65714V6.8718C8.65714 7.29663 8.31176 7.64103 7.88571 7.64103C7.45967 7.64103 7.11429 7.29663 7.11429 6.8718V5.58974H5.82857C5.48758 5.58974 5.16055 5.72482 4.91943 5.96525C4.67832 6.20568 4.54286 6.53177 4.54286 6.8718V10.2051H19.4571ZM4.54286 11.7436H19.4571V19.1795C19.4571 19.5195 19.3217 19.8456 19.0806 20.086C18.8394 20.3265 18.5124 20.4615 18.1714 20.4615H5.82857C5.48758 20.4615 5.16055 20.3265 4.91943 20.086C4.67832 19.8456 4.54286 19.5195 4.54286 19.1795V11.7436Z" fill="#707070"/>
</g>
</svg>
