<svg width="16" height="16" viewBox="0 0 16 16" fill="none" xmlns="http://www.w3.org/2000/svg">
<g id="delete">
<path id="Vector" fill-rule="evenodd" clip-rule="evenodd" d="M5.42857 4.06841V2.52995C5.42857 2.2126 5.555 1.90825 5.78004 1.68384C6.00509 1.45944 6.31031 1.33337 6.62857 1.33337H9.37143C9.68969 1.33337 9.99491 1.45944 10.22 1.68384C10.445 1.90825 10.5714 2.2126 10.5714 2.52995V4.06841H13.4857C13.7697 4.06841 14 4.29801 14 4.58123C14 4.86445 13.7697 5.09405 13.4857 5.09405H13.2732L12.6285 12.8094C12.6224 13.2998 12.4245 13.7688 12.0763 14.116C11.7226 14.4686 11.243 14.6667 10.7429 14.6667H5.25717C4.75705 14.6667 4.27741 14.4686 3.92377 14.116C3.57557 13.7688 3.37761 13.2998 3.3716 12.8094L2.72682 5.09405H2.51429C2.23025 5.09405 2 4.86445 2 4.58123C2 4.29801 2.23025 4.06841 2.51429 4.06841H5.42857ZM6.50735 2.40908C6.5395 2.37702 6.58311 2.35901 6.62857 2.35901H9.37143C9.41689 2.35901 9.4605 2.37702 9.49265 2.40908C9.5248 2.44114 9.54286 2.48462 9.54286 2.52995V4.06841H6.45714V2.52995C6.45714 2.48462 6.4752 2.44114 6.50735 2.40908ZM3.75895 5.09405L4.39825 12.7438C4.39944 12.7579 4.40003 12.7722 4.40003 12.7864C4.40003 13.0131 4.49033 13.2304 4.65108 13.3907C4.81183 13.551 5.02984 13.6411 5.25717 13.6411H10.7429C10.9702 13.6411 11.1882 13.551 11.349 13.3907C11.5097 13.2304 11.6 13.0131 11.6 12.7864C11.6 12.7722 11.6006 12.7579 11.6018 12.7438L12.2411 5.09405H3.75895Z" fill="#CC3D33"/>
</g>
</svg>
