<svg width="16" height="16" viewBox="0 0 16 16" fill="none" xmlns="http://www.w3.org/2000/svg">
<g id="dots">
<g id="Vector">
<path fill-rule="evenodd" clip-rule="evenodd" d="M8.82488 2.5084C9.04367 2.72719 9.16659 3.02393 9.16659 3.33335C9.16659 3.64277 9.04367 3.93952 8.82488 4.15831C8.60608 4.3771 8.30934 4.50002 7.99992 4.50002C7.6905 4.50002 7.39375 4.3771 7.17496 4.15831C6.95617 3.93952 6.83325 3.64277 6.83325 3.33335C6.83325 3.02393 6.95617 2.72719 7.17496 2.5084C7.39375 2.2896 7.6905 2.16669 7.99992 2.16669C8.30934 2.16669 8.60608 2.2896 8.82488 2.5084ZM8.16659 3.33335C8.16659 3.28915 8.14903 3.24676 8.11777 3.2155C8.08651 3.18425 8.04412 3.16669 7.99992 3.16669C7.95572 3.16669 7.91332 3.18425 7.88207 3.2155C7.85081 3.24676 7.83325 3.28915 7.83325 3.33335C7.83325 3.37756 7.85081 3.41995 7.88207 3.4512C7.91332 3.48246 7.95572 3.50002 7.99992 3.50002C8.04412 3.50002 8.08651 3.48246 8.11777 3.4512C8.14903 3.41995 8.16659 3.37756 8.16659 3.33335Z" fill="#212121"/>
<path fill-rule="evenodd" clip-rule="evenodd" d="M8.82488 7.17506C9.04367 7.39385 9.16659 7.6906 9.16659 8.00002C9.16658 8.30944 9.04367 8.60619 8.82488 8.82498C8.60608 9.04377 8.30934 9.16669 7.99992 9.16669C7.6905 9.16669 7.39375 9.04377 7.17496 8.82498C6.95617 8.60619 6.83325 8.30944 6.83325 8.00002C6.83325 7.6906 6.95617 7.39385 7.17496 7.17506C7.39375 6.95627 7.6905 6.83335 7.99992 6.83335C8.30934 6.83335 8.60608 6.95627 8.82488 7.17506ZM8.16659 8.00002C8.16659 7.95582 8.14903 7.91342 8.11777 7.88217C8.08651 7.85091 8.04412 7.83335 7.99992 7.83335C7.95572 7.83335 7.91332 7.85091 7.88207 7.88217C7.85081 7.91342 7.83325 7.95582 7.83325 8.00002C7.83325 8.04422 7.85081 8.08662 7.88207 8.11787C7.91332 8.14913 7.95572 8.16669 7.99992 8.16669C8.04412 8.16669 8.08651 8.14913 8.11777 8.11787C8.14903 8.08662 8.16659 8.04422 8.16659 8.00002Z" fill="#212121"/>
<path fill-rule="evenodd" clip-rule="evenodd" d="M9.16658 12.6667C9.16658 12.3573 9.04367 12.0605 8.82488 11.8417C8.60608 11.6229 8.30934 11.5 7.99992 11.5C7.6905 11.5 7.39375 11.6229 7.17496 11.8417C6.95617 12.0605 6.83325 12.3573 6.83325 12.6667C6.83325 12.9761 6.95617 13.2729 7.17496 13.4916C7.39375 13.7104 7.6905 13.8334 7.99992 13.8334C8.30934 13.8334 8.60608 13.7104 8.82488 13.4916C9.04367 13.2729 9.16658 12.9761 9.16658 12.6667ZM8.11777 12.5488C8.14903 12.5801 8.16659 12.6225 8.16659 12.6667C8.16659 12.7109 8.14903 12.7533 8.11777 12.7845C8.08651 12.8158 8.04412 12.8334 7.99992 12.8334C7.95571 12.8334 7.91332 12.8158 7.88207 12.7845C7.85081 12.7533 7.83325 12.7109 7.83325 12.6667C7.83325 12.6225 7.85081 12.5801 7.88207 12.5488C7.91332 12.5176 7.95571 12.5 7.99992 12.5C8.04412 12.5 8.08651 12.5176 8.11777 12.5488Z" fill="#212121"/>
</g>
</g>
</svg>
