<svg width="24" height="24" viewBox="0 0 24 24" fill="none" xmlns="http://www.w3.org/2000/svg">
<g id="search">
<path id="Vector" fill-rule="evenodd" clip-rule="evenodd" d="M9.94872 2C8.90488 2 7.87126 2.2056 6.90688 2.60506C5.94249 3.00452 5.06623 3.59002 4.32813 4.32813C3.59002 5.06623 3.00452 5.94249 2.60506 6.90688C2.2056 7.87126 2 8.90488 2 9.94872C2 10.9926 2.2056 12.0262 2.60506 12.9906C3.00452 13.9549 3.59002 14.8312 4.32813 15.5693C5.06623 16.3074 5.94249 16.8929 6.90688 17.2924C7.87126 17.6918 8.90488 17.8974 9.94872 17.8974C10.9926 17.8974 12.0262 17.6918 12.9906 17.2924C13.7172 16.9914 14.3938 16.5848 14.999 16.0869L20.6868 21.7747C20.9872 22.0751 21.4743 22.0751 21.7747 21.7747C22.0751 21.4743 22.0751 20.9872 21.7747 20.6868L16.0869 14.999C16.5848 14.3938 16.9914 13.7172 17.2924 12.9906C17.6918 12.0262 17.8974 10.9926 17.8974 9.94872C17.8974 8.90488 17.6918 7.87126 17.2924 6.90688C16.8929 5.94249 16.3074 5.06623 15.5693 4.32813C14.8312 3.59002 13.9549 3.00452 12.9906 2.60506C12.0262 2.2056 10.9926 2 9.94872 2ZM7.49562 4.02641C8.27335 3.70427 9.10691 3.53846 9.94872 3.53846C10.7905 3.53846 11.6241 3.70427 12.4018 4.02641C13.1795 4.34856 13.8862 4.82073 14.4815 5.41598C15.0767 6.01123 15.5489 6.71789 15.871 7.49562C16.1932 8.27335 16.359 9.10691 16.359 9.94872C16.359 10.7905 16.1932 11.6241 15.871 12.4018C15.5489 13.1795 15.0767 13.8862 14.4815 14.4815C13.8862 15.0767 13.1795 15.5489 12.4018 15.871C11.6241 16.1932 10.7905 16.359 9.94872 16.359C9.10691 16.359 8.27335 16.1932 7.49562 15.871C6.71789 15.5489 6.01123 15.0767 5.41598 14.4815C4.82073 13.8862 4.34856 13.1795 4.02641 12.4018C3.70427 11.6241 3.53846 10.7905 3.53846 9.94872C3.53846 9.10691 3.70427 8.27335 4.02641 7.49562C4.34856 6.71789 4.82073 6.01123 5.41598 5.41598C6.01123 4.82073 6.71789 4.34856 7.49562 4.02641Z" fill="#707070"/>
</g>
</svg>
