<svg width="18" height="20" viewBox="0 0 18 20" fill="none" xmlns="http://www.w3.org/2000/svg">
<g id="cancel">
<path id="Vector" fill-rule="evenodd" clip-rule="evenodd" d="M10 1.875C8.93301 1.875 7.87647 2.08516 6.8907 2.49348C5.90493 2.9018 5.00923 3.50028 4.25476 4.25476C3.50028 5.00923 2.9018 5.90493 2.49348 6.8907C2.08516 7.87647 1.875 8.93301 1.875 10C1.875 11.067 2.08516 12.1235 2.49348 13.1093C2.9018 14.0951 3.50028 14.9908 4.25476 15.7452C5.00923 16.4997 5.90493 17.0982 6.8907 17.5065C7.87647 17.9148 8.93301 18.125 10 18.125C11.067 18.125 12.1235 17.9148 13.1093 17.5065C14.0951 17.0982 14.9908 16.4997 15.7452 15.7452C16.4997 14.9908 17.0982 14.0951 17.5065 13.1093C17.9148 12.1235 18.125 11.067 18.125 10C18.125 8.93301 17.9148 7.87647 17.5065 6.8907C17.1003 5.90997 16.5058 5.0184 15.7568 4.26635C15.7531 4.26243 15.7493 4.25855 15.7455 4.25471C15.7416 4.25088 15.7378 4.2471 15.7338 4.24338C14.9818 3.49427 14.0901 2.89974 13.1093 2.49348C12.1235 2.08516 11.067 1.875 10 1.875ZM14.3994 4.71691C13.868 4.27443 13.272 3.91386 12.6309 3.64833C11.7968 3.30283 10.9028 3.125 10 3.125C9.09716 3.125 8.20316 3.30283 7.36905 3.64833C6.53494 3.99383 5.77704 4.50024 5.13864 5.13864C4.50024 5.77704 3.99383 6.53494 3.64833 7.36905C3.30283 8.20316 3.125 9.09716 3.125 10C3.125 10.9028 3.30283 11.7968 3.64833 12.6309C3.91386 13.272 4.27443 13.868 4.71691 14.3994L14.3994 4.71691ZM5.60081 15.2833C6.13213 15.7257 6.72809 16.0862 7.36905 16.3517C8.20316 16.6972 9.09716 16.875 10 16.875C10.9028 16.875 11.7968 16.6972 12.6309 16.3517C13.4651 16.0062 14.223 15.4998 14.8614 14.8614C15.4998 14.223 16.0062 13.4651 16.3517 12.6309C16.6972 11.7968 16.875 10.9028 16.875 10C16.875 9.09716 16.6972 8.20316 16.3517 7.36905C16.0862 6.72809 15.7257 6.13213 15.2833 5.60081L5.60081 15.2833Z" fill="#707070"/>
</g>
</svg>
